<svg width="87" height="107" viewBox="0 0 87 107" fill="none" xmlns="http://www.w3.org/2000/svg">
<path d="M43.4976 64.0946H84.2683C84.5895 64.0946 84.9076 64.1579 85.2044 64.2808C85.5011 64.4037 85.7708 64.5839 85.9979 64.811C86.225 65.0381 86.4052 65.3078 86.5281 65.6045C86.651 65.9013 86.7143 66.2194 86.7143 66.5406V103.794C86.7143 104.554 86.4125 105.283 85.8752 105.82C85.3379 106.357 84.6092 106.659 83.8494 106.659H43.6463C42.9698 106.659 42.321 106.391 41.8427 105.912C41.3643 105.434 41.0956 104.785 41.0956 104.109V66.5169C41.0947 65.8777 41.3468 65.2641 41.7969 64.8102C42.247 64.3564 42.8584 64.0991 43.4976 64.0946Z" fill="#212121"/>
<path d="M64.1601 71.0034H41.0787V94.0847H64.1601V71.0034Z" fill="#F5F5F5"/>
<path d="M43.4977 64.0946H84.2684C84.5896 64.0946 84.9076 64.1579 85.2044 64.2808C85.5012 64.4037 85.7708 64.5839 85.9979 64.811C86.2251 65.0381 86.4052 65.3078 86.5282 65.6045C86.6511 65.9013 86.7143 66.2194 86.7143 66.5406V71.0035H41.0787V66.5169C41.0783 66.199 41.1405 65.8841 41.2619 65.5902C41.3833 65.2963 41.5614 65.0293 41.786 64.8043C42.0107 64.5793 42.2775 64.4008 42.5712 64.2791C42.8649 64.1573 43.1797 64.0946 43.4977 64.0946Z" fill="#0ACF83"/>
<path d="M45.2004 67.6723C45.2004 67.8428 45.1498 68.0095 45.055 68.1513C44.9602 68.293 44.8254 68.4034 44.6678 68.4685C44.5102 68.5336 44.3368 68.5505 44.1696 68.517C44.0024 68.4835 43.8489 68.4011 43.7285 68.2803C43.6082 68.1594 43.5264 68.0056 43.4936 67.8383C43.4607 67.6709 43.4782 67.4976 43.544 67.3403C43.6097 67.1829 43.7206 67.0486 43.8628 66.9543C44.0049 66.8601 44.1718 66.8101 44.3423 66.8108C44.5702 66.8117 44.7884 66.9028 44.9493 67.0643C45.1101 67.2258 45.2004 67.4444 45.2004 67.6723Z" fill="#212121"/>
<path d="M47.8154 67.6723C47.8154 67.8427 47.7649 68.0092 47.6702 68.1509C47.5755 68.2926 47.441 68.403 47.2836 68.4682C47.1262 68.5334 46.9529 68.5505 46.7858 68.5172C46.6187 68.484 46.4652 68.4019 46.3447 68.2815C46.2243 68.161 46.1422 68.0075 46.109 67.8404C46.0757 67.6732 46.0928 67.5 46.158 67.3426C46.2232 67.1852 46.3336 67.0506 46.4753 66.956C46.617 66.8613 46.7835 66.8108 46.9539 66.8108C47.1824 66.8108 47.4015 66.9016 47.5631 67.0631C47.7246 67.2247 47.8154 67.4438 47.8154 67.6723Z" fill="#212121"/>
<path d="M49.5484 68.5338C50.0242 68.5338 50.4099 68.1481 50.4099 67.6723C50.4099 67.1965 50.0242 66.8108 49.5484 66.8108C49.0726 66.8108 48.6869 67.1965 48.6869 67.6723C48.6869 68.1481 49.0726 68.5338 49.5484 68.5338Z" fill="#212121"/>
<path d="M82.1602 78.3481C82.1602 78.3988 78.8324 78.4359 74.7277 78.4359C70.6229 78.4359 67.2952 78.3988 67.2952 78.3481C67.2952 78.2974 70.6195 78.2603 74.7277 78.2603C78.8358 78.2603 82.1602 78.3008 82.1602 78.3481Z" fill="#ABAFB2"/>
<path d="M82.1602 80.588C82.1602 80.6353 78.8324 80.6758 74.7277 80.6758C70.6229 80.6758 67.2952 80.6353 67.2952 80.588C67.2952 80.5407 70.6195 80.5001 74.7277 80.5001C78.8358 80.5001 82.1602 80.5373 82.1602 80.588Z" fill="#ABAFB2"/>
<path d="M82.1602 82.8245C82.1602 82.8752 78.8324 82.9124 74.7277 82.9124C70.6229 82.9124 67.2952 82.8752 67.2952 82.8245C67.2952 82.7739 70.6195 82.7367 74.7277 82.7367C78.8358 82.7367 82.1602 82.7772 82.1602 82.8245Z" fill="#ABAFB2"/>
<path d="M82.1602 87.4632C82.1602 87.5139 78.8324 87.551 74.7277 87.551C70.6229 87.551 67.2952 87.5139 67.2952 87.4632C67.2952 87.4125 70.6195 87.3754 74.7277 87.3754C78.8358 87.3754 82.1602 87.4159 82.1602 87.4632Z" fill="#ABAFB2"/>
<path d="M75.7278 89.7029C75.7278 89.7502 73.8392 89.7908 71.5149 89.7908C69.1905 89.7908 67.302 89.7502 67.302 89.7029C67.302 89.6557 69.1872 89.6151 71.5149 89.6151C73.8426 89.6151 75.7278 89.6523 75.7278 89.7029Z" fill="#ABAFB2"/>
<path d="M74.1365 85.0644C72.9991 85.1515 71.858 85.1808 70.7176 85.1523C69.5783 85.1807 68.4383 85.1514 67.302 85.0644C68.4383 84.9775 69.5783 84.9481 70.7176 84.9766C71.858 84.9481 72.9991 84.9774 74.1365 85.0644Z" fill="#0ACF83"/>
<path d="M74.1365 75.6016C72.9992 75.6906 71.858 75.7199 70.7176 75.6894C69.5783 75.7199 68.4382 75.6906 67.302 75.6016C68.4383 75.5146 69.5783 75.4853 70.7176 75.5137C71.858 75.4852 72.9991 75.5145 74.1365 75.6016Z" fill="#0ACF83"/>
<path d="M41.0044 94.0747H86.7143V103.784C86.7143 104.16 86.6402 104.533 86.4963 104.881C86.3523 105.228 86.1413 105.544 85.8752 105.81C85.6092 106.076 85.2934 106.287 84.9458 106.431C84.5982 106.575 84.2257 106.649 83.8494 106.649H43.5551C42.8786 106.649 42.2298 106.38 41.7515 105.902C41.2731 105.424 41.0044 104.775 41.0044 104.098V94.0747Z" fill="#0D5F3F"/>
<path d="M48.8288 97.5173C48.0155 97.6041 47.197 97.6335 46.3795 97.6051C45.5609 97.6336 44.7413 97.6042 43.9268 97.5173C44.7413 97.4304 45.5609 97.401 46.3795 97.4294C47.197 97.4011 48.0155 97.4304 48.8288 97.5173Z" fill="#ABAFB2"/>
<path d="M59.3965 99.3044C59.3965 99.3551 55.9235 99.3922 51.6262 99.3922C47.3288 99.3922 43.8558 99.3551 43.8558 99.3044C43.8558 99.2537 47.3288 99.2166 51.6262 99.2166C55.9235 99.2166 59.3965 99.2571 59.3965 99.3044Z" fill="#ABAFB2"/>
<path d="M59.3965 101.321C59.3965 101.369 55.9235 101.409 51.6262 101.409C47.3288 101.409 43.8558 101.369 43.8558 101.321C43.8558 101.274 47.3288 101.234 51.6262 101.234C55.9235 101.234 59.3965 101.274 59.3965 101.321Z" fill="#ABAFB2"/>
<path d="M54.7344 103.338C54.7344 103.386 52.3053 103.426 49.3086 103.426C46.312 103.426 43.8795 103.386 43.8795 103.338C43.8795 103.291 46.312 103.25 49.3086 103.25C52.3053 103.25 54.7344 103.288 54.7344 103.338Z" fill="#ABAFB2"/>
<path d="M71.6197 97.5173C70.8052 97.6042 69.9856 97.6336 69.167 97.6051C68.3483 97.6336 67.5287 97.6042 66.7142 97.5173C67.5287 97.4304 68.3483 97.401 69.167 97.4294C69.9856 97.401 70.8052 97.4304 71.6197 97.5173Z" fill="#ABAFB2"/>
<path d="M82.1839 99.3044C82.1839 99.3551 78.7109 99.3922 74.4135 99.3922C70.1162 99.3922 66.6432 99.3551 66.6432 99.3044C66.6432 99.2537 70.1162 99.2166 74.4135 99.2166C78.7109 99.2166 82.1839 99.2571 82.1839 99.3044Z" fill="#ABAFB2"/>
<path d="M82.1839 101.321C82.1839 101.369 78.7109 101.409 74.4135 101.409C70.1162 101.409 66.6432 101.369 66.6432 101.321C66.6432 101.274 70.1162 101.234 74.4135 101.234C78.7109 101.234 82.1839 101.274 82.1839 101.321Z" fill="#ABAFB2"/>
<path d="M77.5216 103.338C77.5216 103.386 75.0891 103.426 72.0925 103.426C69.0958 103.426 66.6667 103.386 66.6667 103.338C66.6667 103.291 69.0958 103.25 72.0925 103.25C75.0891 103.25 77.5216 103.288 77.5216 103.338Z" fill="#ABAFB2"/>
<path d="M83.8494 106.659C83.8494 106.659 84.0014 106.659 84.292 106.612C84.8547 106.521 85.377 106.262 85.7914 105.871C86.2058 105.479 86.4932 104.973 86.6163 104.416C86.6888 103.969 86.7114 103.516 86.6839 103.065C86.6839 102.582 86.6839 102.068 86.6839 101.524C86.6839 97.1693 86.6839 90.8753 86.6569 83.0948C86.6569 79.2063 86.6569 74.9427 86.6569 70.3684V66.892C86.671 66.6012 86.6506 66.3097 86.5961 66.0237C86.5347 65.739 86.4201 65.4685 86.2582 65.2264C85.9266 64.7356 85.4246 64.3852 84.8494 64.2433C84.5563 64.1819 84.2566 64.158 83.9575 64.1723H77.3426H43.876C43.5144 64.1494 43.1515 64.1859 42.8017 64.2804C42.4603 64.3885 42.1482 64.5734 41.8895 64.821C41.6335 65.0702 41.4359 65.3731 41.3109 65.7078C41.1859 66.0425 41.1366 66.4008 41.1665 66.7568V79.6624C41.1665 85.2604 41.1665 90.6625 41.1665 95.8044C41.1665 98.3788 41.1665 100.884 41.1665 103.321C41.1665 103.625 41.1665 103.936 41.1665 104.23C41.1806 104.522 41.247 104.809 41.3625 105.078C41.5952 105.614 42.0091 106.05 42.5314 106.311C42.7857 106.442 43.0615 106.526 43.3456 106.558C43.626 106.585 43.9233 106.558 44.2139 106.558H45.9436H58.6701L77.096 106.585L82.1062 106.602H83.4102H83.8528H83.4102H82.1062L77.096 106.619L58.6701 106.646H45.9436H44.2105C43.9166 106.646 43.6294 106.646 43.3253 106.625C43.0239 106.593 42.7309 106.506 42.4605 106.369C42.0432 106.164 41.6883 105.851 41.4329 105.462C41.1774 105.073 41.0306 104.624 41.0077 104.159C41.0077 103.848 41.0077 103.551 41.0077 103.244C41.0077 100.809 41.0077 98.3033 41.0077 95.7267C41.0077 90.5848 41.0077 85.1827 41.0077 79.5847C41.0077 76.7873 41.0077 73.9405 41.0077 71.044V66.767C40.9784 66.387 41.0327 66.0052 41.167 65.6486C41.3013 65.2919 41.5121 64.969 41.7848 64.7028C42.064 64.4385 42.3987 64.24 42.7645 64.1217C43.1318 64.0218 43.513 63.983 43.8929 64.0068H77.3595H83.9575C84.2693 63.9923 84.5816 64.0185 84.8866 64.0845C85.3425 64.1952 85.7582 64.4315 86.0866 64.7665C86.4151 65.1015 86.643 65.5218 86.7447 65.9798C86.7999 66.2771 86.8203 66.5798 86.8055 66.8818V70.3684C86.8055 74.9427 86.8055 79.2063 86.8055 83.0948C86.8055 90.8652 86.7853 97.1693 86.7785 101.524C86.7785 102.068 86.7785 102.582 86.7785 103.065C86.8029 103.516 86.778 103.97 86.7042 104.416C86.5435 105.118 86.1267 105.735 85.5352 106.146C85.175 106.395 84.7623 106.558 84.3292 106.622C84.2173 106.639 84.1044 106.648 83.9913 106.649L83.8494 106.659Z" fill="#ABAFB2"/>
<path fill-rule="evenodd" clip-rule="evenodd" d="M58.7366 80.397C59.5423 83.3663 60.5924 90.0407 59.5209 91.0876H52.7417C52.741 91.0756 52.7403 91.0636 52.7396 91.0516C50.227 90.7736 48.2727 88.6432 48.2727 86.0564V81.1473C48.2727 78.3715 50.5229 76.1213 53.2987 76.1213H53.7662C56.287 76.1213 58.3743 77.9771 58.7366 80.397Z" fill="#191847"/>
<path fill-rule="evenodd" clip-rule="evenodd" d="M50.9054 85.119C49.8283 83.8546 49.0992 82.3051 49.221 80.5688C49.5721 75.5661 56.536 76.6667 57.8906 79.1916C59.2453 81.7165 59.0843 88.1213 57.3335 88.5725C56.6354 88.7525 55.148 88.3116 53.6342 87.3992L54.5844 94.1213H48.974L50.9054 85.119Z" fill="#B28B67"/>
<path fill-rule="evenodd" clip-rule="evenodd" d="M52.4221 84.2739C52.6806 87.0506 52.577 90.2215 51.8066 90.9742H45.0274C44.6497 84.4115 48.3001 86.9529 48.3001 80.7739C48.5277 80.5516 48.7428 80.3315 48.9556 80.1417L48.9481 79.9599C50.1219 77.5567 51.6112 76.3551 53.4159 76.3551C56.1229 76.3551 56.9774 77.6147 57.7049 78.6841C57.1609 80.5508 55.0497 80.8276 53.1738 81.9911C52.9527 81.8114 52.6707 81.7038 52.3636 81.7038C51.6536 81.7038 51.0779 82.2794 51.0779 82.9895C51.0779 83.6996 51.6536 84.2752 52.3636 84.2752C52.3832 84.2752 52.4027 84.2748 52.4221 84.2739Z" fill="#191847"/>
<path d="M2.49764 35.9733H43.2683C43.5895 35.9733 43.9076 36.0365 44.2044 36.1595C44.5011 36.2824 44.7708 36.4625 44.9979 36.6897C45.225 36.9168 45.4052 37.1864 45.5281 37.4832C45.651 37.78 45.7143 38.098 45.7143 38.4192V75.673C45.7143 76.4328 45.4125 77.1615 44.8752 77.6988C44.3379 78.2361 43.6092 78.5379 42.8494 78.5379H2.64629C1.9698 78.5379 1.32102 78.2692 0.842666 77.7908C0.364317 77.3125 0.0955835 76.6637 0.0955835 75.9872V38.3956C0.0946752 37.7564 0.346812 37.1428 0.796901 36.6889C1.24699 36.235 1.85844 35.9777 2.49764 35.9733Z" fill="#212121"/>
<path d="M23.1601 42.8821H0.0787354V65.9634H23.1601V42.8821Z" fill="#F5F5F5"/>
<path d="M2.49768 35.9733H43.2684C43.5896 35.9733 43.9076 36.0365 44.2044 36.1595C44.5012 36.2824 44.7708 36.4625 44.9979 36.6897C45.2251 36.9168 45.4052 37.1864 45.5282 37.4832C45.6511 37.78 45.7143 38.098 45.7143 38.4192V42.8821H0.0787377V38.3956C0.0782937 38.0776 0.140533 37.7627 0.261898 37.4689C0.383262 37.175 0.56137 36.9079 0.786034 36.683C1.0107 36.458 1.27751 36.2795 1.57121 36.1577C1.86491 36.036 2.17974 35.9733 2.49768 35.9733Z" fill="#0ACF83"/>
<path d="M4.20041 39.551C4.20041 39.7215 4.1498 39.8882 4.05498 40.0299C3.96017 40.1717 3.82542 40.2821 3.66781 40.3472C3.51019 40.4123 3.3368 40.4292 3.1696 40.3956C3.00239 40.3621 2.8489 40.2797 2.72855 40.1589C2.6082 40.0381 2.52642 39.8843 2.49356 39.7169C2.4607 39.5496 2.47825 39.3763 2.54397 39.2189C2.60969 39.0616 2.72064 38.9273 2.86275 38.833C3.00487 38.7387 3.17176 38.6888 3.34229 38.6895C3.57019 38.6904 3.78845 38.7815 3.94928 38.943C4.11011 39.1044 4.20041 39.3231 4.20041 39.551Z" fill="#212121"/>
<path d="M6.8154 39.5509C6.8154 39.7213 6.76487 39.8879 6.67021 40.0296C6.57555 40.1712 6.441 40.2817 6.28358 40.3469C6.12617 40.4121 5.95295 40.4291 5.78583 40.3959C5.61872 40.3626 5.46522 40.2806 5.34473 40.1601C5.22425 40.0396 5.1422 39.8861 5.10896 39.719C5.07572 39.5519 5.09278 39.3787 5.15799 39.2213C5.22319 39.0639 5.33361 38.9293 5.47528 38.8346C5.61695 38.74 5.78352 38.6895 5.9539 38.6895C6.18239 38.6895 6.40151 38.7802 6.56307 38.9418C6.72463 39.1033 6.8154 39.3225 6.8154 39.5509Z" fill="#212121"/>
<path d="M8.54838 40.4124C9.02417 40.4124 9.40988 40.0267 9.40988 39.5509C9.40988 39.0752 9.02417 38.6895 8.54838 38.6895C8.07259 38.6895 7.68689 39.0752 7.68689 39.5509C7.68689 40.0267 8.07259 40.4124 8.54838 40.4124Z" fill="#212121"/>
<path d="M41.1602 50.2268C41.1602 50.2774 37.8324 50.3146 33.7277 50.3146C29.6229 50.3146 26.2952 50.2774 26.2952 50.2268C26.2952 50.1761 29.6195 50.1389 33.7277 50.1389C37.8358 50.1389 41.1602 50.1795 41.1602 50.2268Z" fill="#ABAFB2"/>
<path d="M41.1602 52.4666C41.1602 52.5139 37.8324 52.5545 33.7277 52.5545C29.6229 52.5545 26.2952 52.5139 26.2952 52.4666C26.2952 52.4193 29.6195 52.3788 33.7277 52.3788C37.8358 52.3788 41.1602 52.4159 41.1602 52.4666Z" fill="#ABAFB2"/>
<path d="M41.1602 54.7032C41.1602 54.7539 37.8324 54.791 33.7277 54.791C29.6229 54.791 26.2952 54.7539 26.2952 54.7032C26.2952 54.6525 29.6195 54.6154 33.7277 54.6154C37.8358 54.6154 41.1602 54.6559 41.1602 54.7032Z" fill="#ABAFB2"/>
<path d="M41.1602 59.3419C41.1602 59.3925 37.8324 59.4297 33.7277 59.4297C29.6229 59.4297 26.2952 59.3925 26.2952 59.3419C26.2952 59.2912 29.6195 59.254 33.7277 59.254C37.8358 59.254 41.1602 59.2946 41.1602 59.3419Z" fill="#ABAFB2"/>
<path d="M34.7278 61.5816C34.7278 61.6289 32.8392 61.6695 30.5149 61.6695C28.1905 61.6695 26.302 61.6289 26.302 61.5816C26.302 61.5343 28.1872 61.4938 30.5149 61.4938C32.8426 61.4938 34.7278 61.5309 34.7278 61.5816Z" fill="#ABAFB2"/>
<path d="M33.1365 56.9431C31.9991 57.0301 30.858 57.0594 29.7176 57.0309C28.5783 57.0594 27.4383 57.0301 26.302 56.9431C27.4383 56.8561 28.5783 56.8268 29.7176 56.8553C30.858 56.8268 31.9991 56.8561 33.1365 56.9431Z" fill="#0ACF83"/>
<path d="M33.1365 47.4802C31.9992 47.5693 30.858 47.5986 29.7176 47.5681C28.5783 47.5985 27.4382 47.5692 26.302 47.4802C27.4383 47.3932 28.5783 47.3639 29.7176 47.3924C30.858 47.3639 31.9991 47.3932 33.1365 47.4802Z" fill="#0ACF83"/>
<path d="M0.00439453 65.9534H45.7143V75.6629C45.7143 76.0391 45.6402 76.4117 45.4963 76.7593C45.3523 77.1069 45.1413 77.4227 44.8752 77.6887C44.6092 77.9547 44.2934 78.1658 43.9458 78.3097C43.5982 78.4537 43.2257 78.5278 42.8494 78.5278H2.5551C1.87861 78.5278 1.22983 78.2591 0.751477 77.7807C0.273128 77.3024 0.00439453 76.6536 0.00439453 75.9771V65.9534Z" fill="#0D5F3F"/>
<path d="M7.82884 69.3959C7.01547 69.4828 6.19699 69.5122 5.37949 69.4838C4.56086 69.5122 3.74125 69.4829 2.92676 69.3959C3.74125 69.309 4.56086 69.2797 5.37949 69.3081C6.19699 69.2797 7.01547 69.3091 7.82884 69.3959Z" fill="#ABAFB2"/>
<path d="M18.3965 71.1831C18.3965 71.2337 14.9235 71.2709 10.6262 71.2709C6.32884 71.2709 2.85583 71.2337 2.85583 71.1831C2.85583 71.1324 6.32884 71.0952 10.6262 71.0952C14.9235 71.0952 18.3965 71.1358 18.3965 71.1831Z" fill="#ABAFB2"/>
<path d="M18.3965 73.2C18.3965 73.2473 14.9235 73.2879 10.6262 73.2879C6.32884 73.2879 2.85583 73.2473 2.85583 73.2C2.85583 73.1527 6.32884 73.1122 10.6262 73.1122C14.9235 73.1122 18.3965 73.1527 18.3965 73.2Z" fill="#ABAFB2"/>
<path d="M13.7344 75.217C13.7344 75.2643 11.3053 75.3048 8.30863 75.3048C5.31197 75.3048 2.87952 75.2643 2.87952 75.217C2.87952 75.1697 5.31197 75.1292 8.30863 75.1292C11.3053 75.1292 13.7344 75.1663 13.7344 75.217Z" fill="#ABAFB2"/>
<path d="M30.6197 69.3959C29.8052 69.4829 28.9856 69.5122 28.167 69.4838C27.3483 69.5122 26.5287 69.4829 25.7142 69.3959C26.5287 69.309 27.3483 69.2797 28.167 69.3081C28.9856 69.2797 29.8052 69.309 30.6197 69.3959Z" fill="#ABAFB2"/>
<path d="M41.1839 71.1831C41.1839 71.2337 37.7109 71.2709 33.4135 71.2709C29.1162 71.2709 25.6432 71.2337 25.6432 71.1831C25.6432 71.1324 29.1162 71.0952 33.4135 71.0952C37.7109 71.0952 41.1839 71.1358 41.1839 71.1831Z" fill="#ABAFB2"/>
<path d="M41.1839 73.2C41.1839 73.2473 37.7109 73.2879 33.4135 73.2879C29.1162 73.2879 25.6432 73.2473 25.6432 73.2C25.6432 73.1527 29.1162 73.1122 33.4135 73.1122C37.7109 73.1122 41.1839 73.1527 41.1839 73.2Z" fill="#ABAFB2"/>
<path d="M36.5216 75.217C36.5216 75.2643 34.0891 75.3048 31.0925 75.3048C28.0958 75.3048 25.6667 75.2643 25.6667 75.217C25.6667 75.1697 28.0958 75.1292 31.0925 75.1292C34.0891 75.1292 36.5216 75.1663 36.5216 75.217Z" fill="#ABAFB2"/>
<path d="M42.8494 78.5379C42.8494 78.5379 43.0014 78.5379 43.292 78.4906C43.8547 78.3993 44.377 78.1411 44.7914 77.7496C45.2058 77.3581 45.4932 76.8513 45.6163 76.2947C45.6888 75.8481 45.7114 75.3949 45.6839 74.9433C45.6839 74.4602 45.6839 73.9467 45.6839 73.4027C45.6839 69.048 45.6839 62.754 45.6569 54.9735C45.6569 51.0849 45.6569 46.8214 45.6569 42.247V38.7706C45.671 38.4798 45.6506 38.1884 45.5961 37.9024C45.5347 37.6177 45.4201 37.3472 45.2582 37.1051C44.9266 36.6142 44.4246 36.2639 43.8494 36.1219C43.5563 36.0605 43.2566 36.0367 42.9575 36.051H36.3426H2.87602C2.51441 36.0281 2.15148 36.0646 1.80169 36.1591C1.46029 36.2672 1.14823 36.4521 0.889515 36.6997C0.633517 36.9489 0.435914 37.2518 0.310908 37.5865C0.185901 37.9212 0.136596 38.2794 0.166534 38.6355V51.541C0.166534 57.1391 0.166534 62.5411 0.166534 67.6831C0.166534 70.2574 0.166534 72.7631 0.166534 75.2001C0.166534 75.5041 0.166534 75.8149 0.166534 76.1088C0.180633 76.401 0.247 76.6882 0.362483 76.9568C0.595243 77.4924 1.00906 77.9289 1.53141 78.19C1.78567 78.3207 2.06154 78.4043 2.34561 78.4366C2.62602 78.4636 2.92332 78.4366 3.21386 78.4366H4.94361H17.6701L36.096 78.4636L41.1062 78.4805H42.4102H42.8528H42.4102H41.1062L36.096 78.4974L17.6701 78.5244H4.94361H3.21049C2.91656 78.5244 2.6294 78.5244 2.32534 78.5041C2.02389 78.4716 1.73086 78.3846 1.46047 78.2474C1.04315 78.0423 0.688345 77.7292 0.432888 77.3407C0.177431 76.9522 0.0306368 76.5023 0.00774845 76.0379C0.00774845 75.7271 0.00774845 75.4298 0.00774845 75.1224C0.00774845 72.6876 0.00774845 70.182 0.00774845 67.6054C0.00774845 62.4634 0.00774845 57.0614 0.00774845 51.4633C0.00774845 48.666 0.00774845 45.8191 0.00774845 42.9227V38.6456C-0.0216242 38.2657 0.032737 37.8839 0.166997 37.5272C0.301257 37.1706 0.512146 36.8477 0.784785 36.5814C1.06401 36.3172 1.39874 36.1186 1.76452 36.0003C2.13182 35.9005 2.51303 35.8617 2.89291 35.8855H36.3595H42.9575C43.2693 35.871 43.5816 35.8971 43.8866 35.9632C44.3425 36.0739 44.7582 36.3101 45.0866 36.6451C45.4151 36.9801 45.643 37.4005 45.7447 37.8585C45.7999 38.1558 45.8203 38.4585 45.8055 38.7605V42.247C45.8055 46.8214 45.8055 51.0849 45.8055 54.9735C45.8055 62.7438 45.7853 69.048 45.7785 73.4027C45.7785 73.9467 45.7785 74.4602 45.7785 74.9433C45.8029 75.3951 45.778 75.8482 45.7042 76.2947C45.5435 76.9967 45.1267 77.6135 44.5352 78.0244C44.175 78.2734 43.7623 78.4364 43.3292 78.5008C43.2173 78.5173 43.1044 78.5264 42.9913 78.5278L42.8494 78.5379Z" fill="#ABAFB2"/>
<path fill-rule="evenodd" clip-rule="evenodd" d="M17.7366 52.2756C18.5423 55.245 19.5924 61.9193 18.5209 62.9663H11.7417C11.741 62.9543 11.7403 62.9423 11.7396 62.9303C9.22697 62.6522 7.27271 60.5219 7.27271 57.9351V53.026C7.27271 50.2502 9.52291 48 12.2987 48H12.7662C15.287 48 17.3743 49.8558 17.7366 52.2756Z" fill="#191847"/>
<path fill-rule="evenodd" clip-rule="evenodd" d="M9.90544 56.9977C8.82827 55.7333 8.09921 54.1838 8.22104 52.4475C8.57205 47.4448 15.536 48.5453 16.8906 51.0703C18.2453 53.5952 18.0843 59.9999 16.3335 60.4512C15.6354 60.6312 14.148 60.1903 12.6342 59.2779L13.5844 66H7.974L9.90544 56.9977Z" fill="#B28B67"/>
<path fill-rule="evenodd" clip-rule="evenodd" d="M11.4221 56.1526C11.6806 58.9292 11.577 62.1001 10.8066 62.8528H4.02741C3.6497 56.2902 7.30014 58.8315 7.30014 52.6526C7.52773 52.4302 7.74279 52.2101 7.95559 52.0203L7.94805 51.8386C9.12195 49.4354 10.6112 48.2338 12.4159 48.2338C15.1229 48.2338 15.9774 49.4934 16.7049 50.5628C16.1609 52.4294 14.0497 52.7062 12.1738 53.8698C11.9527 53.6901 11.6707 53.5824 11.3636 53.5824C10.6536 53.5824 10.0779 54.1581 10.0779 54.8681C10.0779 55.5782 10.6536 56.1539 11.3636 56.1539C11.3832 56.1539 11.4027 56.1534 11.4221 56.1526Z" fill="#191847"/>
<path d="M29.4976 0.0946045H70.2683C70.5895 0.0946045 70.9076 0.157873 71.2044 0.280795C71.5011 0.403716 71.7708 0.583888 71.9979 0.811017C72.225 1.03815 72.4052 1.30779 72.5281 1.60454C72.651 1.9013 72.7143 2.21937 72.7143 2.54058V39.7943C72.7143 40.5542 72.4125 41.2829 71.8752 41.8201C71.3379 42.3574 70.6092 42.6592 69.8494 42.6592H29.6463C28.9698 42.6592 28.321 42.3905 27.8427 41.9122C27.3643 41.4338 27.0956 40.785 27.0956 40.1085V2.51693C27.0947 1.87771 27.3468 1.26413 27.7969 0.810244C28.247 0.356357 28.8584 0.0990676 29.4976 0.0946045Z" fill="#212121"/>
<path d="M50.1601 7.00342H27.0787V30.0847H50.1601V7.00342Z" fill="#F5F5F5"/>
<path d="M29.4977 0.0946045H70.2684C70.5896 0.0946045 70.9076 0.157873 71.2044 0.280795C71.5012 0.403716 71.7708 0.583888 71.9979 0.811017C72.2251 1.03815 72.4052 1.30779 72.5282 1.60454C72.6511 1.9013 72.7143 2.21937 72.7143 2.54058V7.00346H27.0787V2.51693C27.0783 2.19898 27.1405 1.88407 27.2619 1.5902C27.3833 1.29633 27.5614 1.02927 27.786 0.804295C28.0107 0.579317 28.2775 0.400837 28.5712 0.279062C28.8649 0.157288 29.1797 0.0946042 29.4977 0.0946045Z" fill="#0ACF83"/>
<path d="M31.2004 3.67229C31.2004 3.84283 31.1498 4.00952 31.055 4.15126C30.9602 4.293 30.8254 4.40342 30.6678 4.46853C30.5102 4.53363 30.3368 4.5505 30.1696 4.51698C30.0024 4.48346 29.8489 4.40108 29.7285 4.28025C29.6082 4.15943 29.5264 4.00562 29.4936 3.83828C29.4607 3.67095 29.4782 3.49762 29.544 3.34026C29.6097 3.1829 29.7206 3.04859 29.8628 2.95434C30.0049 2.86009 30.1718 2.81013 30.3423 2.8108C30.5702 2.81169 30.7884 2.90285 30.9493 3.06431C31.1101 3.22578 31.2004 3.4444 31.2004 3.67229Z" fill="#212121"/>
<path d="M33.8154 3.67229C33.8154 3.84268 33.7649 4.00924 33.6702 4.15091C33.5755 4.29258 33.441 4.403 33.2836 4.4682C33.1262 4.53341 32.9529 4.55047 32.7858 4.51723C32.6187 4.48399 32.4652 4.40194 32.3447 4.28145C32.2243 4.16097 32.1422 4.00747 32.109 3.84035C32.0757 3.67324 32.0928 3.50002 32.158 3.34261C32.2232 3.18519 32.3336 3.05064 32.4753 2.95598C32.617 2.86132 32.7835 2.81079 32.9539 2.81079C33.1824 2.81079 33.4015 2.90155 33.5631 3.06312C33.7246 3.22468 33.8154 3.4438 33.8154 3.67229Z" fill="#212121"/>
<path d="M35.5484 4.53378C36.0242 4.53378 36.4099 4.14808 36.4099 3.67229C36.4099 3.1965 36.0242 2.81079 35.5484 2.81079C35.0726 2.81079 34.6869 3.1965 34.6869 3.67229C34.6869 4.14808 35.0726 4.53378 35.5484 4.53378Z" fill="#212121"/>
<path d="M68.1602 14.3481C68.1602 14.3988 64.8324 14.4359 60.7277 14.4359C56.6229 14.4359 53.2952 14.3988 53.2952 14.3481C53.2952 14.2974 56.6195 14.2603 60.7277 14.2603C64.8358 14.2603 68.1602 14.3008 68.1602 14.3481Z" fill="#ABAFB2"/>
<path d="M68.1602 16.588C68.1602 16.6353 64.8324 16.6758 60.7277 16.6758C56.6229 16.6758 53.2952 16.6353 53.2952 16.588C53.2952 16.5407 56.6195 16.5001 60.7277 16.5001C64.8358 16.5001 68.1602 16.5373 68.1602 16.588Z" fill="#ABAFB2"/>
<path d="M68.1602 18.8245C68.1602 18.8752 64.8324 18.9124 60.7277 18.9124C56.6229 18.9124 53.2952 18.8752 53.2952 18.8245C53.2952 18.7739 56.6195 18.7367 60.7277 18.7367C64.8358 18.7367 68.1602 18.7772 68.1602 18.8245Z" fill="#ABAFB2"/>
<path d="M68.1602 23.4632C68.1602 23.5139 64.8324 23.551 60.7277 23.551C56.6229 23.551 53.2952 23.5139 53.2952 23.4632C53.2952 23.4125 56.6195 23.3754 60.7277 23.3754C64.8358 23.3754 68.1602 23.4159 68.1602 23.4632Z" fill="#ABAFB2"/>
<path d="M61.7278 25.7029C61.7278 25.7502 59.8392 25.7908 57.5149 25.7908C55.1905 25.7908 53.302 25.7502 53.302 25.7029C53.302 25.6557 55.1872 25.6151 57.5149 25.6151C59.8426 25.6151 61.7278 25.6523 61.7278 25.7029Z" fill="#ABAFB2"/>
<path d="M60.1365 21.0644C58.9991 21.1515 57.858 21.1808 56.7176 21.1523C55.5783 21.1807 54.4383 21.1514 53.302 21.0644C54.4383 20.9775 55.5783 20.9481 56.7176 20.9766C57.858 20.9481 58.9991 20.9774 60.1365 21.0644Z" fill="#0ACF83"/>
<path d="M60.1365 11.6016C58.9992 11.6906 57.858 11.7199 56.7176 11.6894C55.5783 11.7199 54.4382 11.6906 53.302 11.6016C54.4383 11.5146 55.5783 11.4853 56.7176 11.5137C57.858 11.4852 58.9991 11.5145 60.1365 11.6016Z" fill="#0ACF83"/>
<path d="M27.0044 30.0747H72.7143V39.7843C72.7143 40.1605 72.6402 40.533 72.4963 40.8806C72.3523 41.2282 72.1413 41.544 71.8752 41.8101C71.6092 42.0761 71.2934 42.2871 70.9458 42.4311C70.5982 42.5751 70.2257 42.6492 69.8494 42.6492H29.5551C28.8786 42.6492 28.2298 42.3804 27.7515 41.9021C27.2731 41.4237 27.0044 40.775 27.0044 40.0985V30.0747Z" fill="#0D5F3F"/>
<path d="M34.8288 33.5173C34.0155 33.6041 33.197 33.6335 32.3795 33.6051C31.5609 33.6336 30.7413 33.6042 29.9268 33.5173C30.7413 33.4304 31.5609 33.401 32.3795 33.4294C33.197 33.4011 34.0155 33.4304 34.8288 33.5173Z" fill="#ABAFB2"/>
<path d="M45.3965 35.3044C45.3965 35.3551 41.9235 35.3922 37.6262 35.3922C33.3288 35.3922 29.8558 35.3551 29.8558 35.3044C29.8558 35.2537 33.3288 35.2166 37.6262 35.2166C41.9235 35.2166 45.3965 35.2571 45.3965 35.3044Z" fill="#ABAFB2"/>
<path d="M45.3965 37.3214C45.3965 37.3687 41.9235 37.4092 37.6262 37.4092C33.3288 37.4092 29.8558 37.3687 29.8558 37.3214C29.8558 37.2741 33.3288 37.2335 37.6262 37.2335C41.9235 37.2335 45.3965 37.2741 45.3965 37.3214Z" fill="#ABAFB2"/>
<path d="M40.7344 39.3383C40.7344 39.3856 38.3053 39.4262 35.3086 39.4262C32.312 39.4262 29.8795 39.3856 29.8795 39.3383C29.8795 39.291 32.312 39.2505 35.3086 39.2505C38.3053 39.2505 40.7344 39.2877 40.7344 39.3383Z" fill="#ABAFB2"/>
<path d="M57.6197 33.5173C56.8052 33.6042 55.9856 33.6336 55.167 33.6051C54.3483 33.6336 53.5287 33.6042 52.7142 33.5173C53.5287 33.4304 54.3483 33.401 55.167 33.4294C55.9856 33.401 56.8052 33.4304 57.6197 33.5173Z" fill="#ABAFB2"/>
<path d="M68.1839 35.3044C68.1839 35.3551 64.7109 35.3922 60.4135 35.3922C56.1162 35.3922 52.6432 35.3551 52.6432 35.3044C52.6432 35.2537 56.1162 35.2166 60.4135 35.2166C64.7109 35.2166 68.1839 35.2571 68.1839 35.3044Z" fill="#ABAFB2"/>
<path d="M68.1839 37.3214C68.1839 37.3687 64.7109 37.4092 60.4135 37.4092C56.1162 37.4092 52.6432 37.3687 52.6432 37.3214C52.6432 37.2741 56.1162 37.2335 60.4135 37.2335C64.7109 37.2335 68.1839 37.2741 68.1839 37.3214Z" fill="#ABAFB2"/>
<path d="M63.5216 39.3383C63.5216 39.3856 61.0891 39.4262 58.0925 39.4262C55.0958 39.4262 52.6667 39.3856 52.6667 39.3383C52.6667 39.291 55.0958 39.2505 58.0925 39.2505C61.0891 39.2505 63.5216 39.2877 63.5216 39.3383Z" fill="#ABAFB2"/>
<path d="M69.8494 42.6593C69.8494 42.6593 70.0014 42.6593 70.292 42.612C70.8547 42.5206 71.377 42.2625 71.7914 41.871C72.2058 41.4795 72.4932 40.9726 72.6163 40.416C72.6888 39.9694 72.7114 39.5162 72.6839 39.0646C72.6839 38.5815 72.6839 38.068 72.6839 37.5241C72.6839 33.1693 72.6839 26.8753 72.6569 19.0948C72.6569 15.2063 72.6569 10.9427 72.6569 6.36835V2.89196C72.671 2.60116 72.6506 2.30971 72.5961 2.02371C72.5347 1.73903 72.4201 1.46851 72.2582 1.22641C71.9266 0.735551 71.4246 0.38523 70.8494 0.243286C70.5563 0.181872 70.2566 0.158034 69.9575 0.172342H63.3426H29.876C29.5144 0.149409 29.1515 0.185927 28.8017 0.280449C28.4603 0.388503 28.1482 0.573429 27.8895 0.820997C27.6335 1.07025 27.4359 1.37311 27.3109 1.70783C27.1859 2.04254 27.1366 2.40079 27.1665 2.75683V15.6624C27.1665 21.2604 27.1665 26.6625 27.1665 31.8044C27.1665 34.3788 27.1665 36.8844 27.1665 39.3214C27.1665 39.6255 27.1665 39.9363 27.1665 40.2302C27.1806 40.5223 27.247 40.8095 27.3625 41.0782C27.5952 41.6137 28.0091 42.0503 28.5314 42.3113C28.7857 42.442 29.0615 42.5256 29.3456 42.5579C29.626 42.5849 29.9233 42.5579 30.2139 42.5579H31.9436H44.6701L63.096 42.5849L68.1062 42.6018H69.4102H69.8528H69.4102H68.1062L63.096 42.6187L44.6701 42.6458H31.9436H30.2105C29.9166 42.6458 29.6294 42.6458 29.3253 42.6255C29.0239 42.5929 28.7309 42.5059 28.4605 42.3687C28.0432 42.1636 27.6883 41.8506 27.4329 41.462C27.1774 41.0735 27.0306 40.6237 27.0077 40.1592C27.0077 39.8484 27.0077 39.5511 27.0077 39.2437C27.0077 36.809 27.0077 34.3033 27.0077 31.7267C27.0077 26.5848 27.0077 21.1827 27.0077 15.5847C27.0077 12.7873 27.0077 9.94046 27.0077 7.04403V2.76696C26.9784 2.387 27.0327 2.00522 27.167 1.64855C27.3013 1.29189 27.5121 0.969028 27.7848 0.702751C28.064 0.438509 28.3987 0.239979 28.7645 0.121663C29.1318 0.0217995 29.513 -0.0170053 29.8929 0.00679823H63.3595H69.9575C70.2693 -0.00766446 70.5816 0.0184541 70.8866 0.0845003C71.3425 0.195214 71.7582 0.431473 72.0866 0.766472C72.4151 1.10147 72.643 1.5218 72.7447 1.97979C72.7999 2.27709 72.8203 2.57981 72.8055 2.88183V6.36835C72.8055 10.9427 72.8055 15.2063 72.8055 19.0948C72.8055 26.8652 72.7853 33.1693 72.7785 37.5241C72.7785 38.068 72.7785 38.5815 72.7785 39.0646C72.8029 39.5164 72.778 39.9696 72.7042 40.416C72.5435 41.118 72.1267 41.7348 71.5352 42.1458C71.175 42.3947 70.7623 42.5577 70.3292 42.6221C70.2173 42.6387 70.1044 42.6477 69.9913 42.6491L69.8494 42.6593Z" fill="#ABAFB2"/>
<path fill-rule="evenodd" clip-rule="evenodd" d="M44.7366 16.397C45.5423 19.3663 46.5924 26.0407 45.5209 27.0876H38.7417C38.741 27.0756 38.7403 27.0636 38.7396 27.0516C36.227 26.7736 34.2727 24.6432 34.2727 22.0564V17.1473C34.2727 14.3715 36.5229 12.1213 39.2987 12.1213H39.7662C42.287 12.1213 44.3743 13.9771 44.7366 16.397Z" fill="#191847"/>
<path fill-rule="evenodd" clip-rule="evenodd" d="M36.9054 21.119C35.8283 19.8546 35.0992 18.3051 35.221 16.5688C35.5721 11.5661 42.536 12.6667 43.8906 15.1916C45.2453 17.7165 45.0843 24.1213 43.3335 24.5725C42.6354 24.7525 41.148 24.3116 39.6342 23.3992L40.5844 30.1213H34.974L36.9054 21.119Z" fill="#B28B67"/>
<path fill-rule="evenodd" clip-rule="evenodd" d="M38.4221 20.2739C38.6806 23.0506 38.577 26.2215 37.8066 26.9742H31.0274C30.6497 20.4115 34.3001 22.9529 34.3001 16.7739C34.5277 16.5516 34.7428 16.3315 34.9556 16.1417L34.9481 15.9599C36.1219 13.5567 37.6112 12.3551 39.4159 12.3551C42.1229 12.3551 42.9774 13.6147 43.7049 14.6841C43.1609 16.5508 41.0497 16.8276 39.1738 17.9911C38.9527 17.8114 38.6707 17.7038 38.3636 17.7038C37.6536 17.7038 37.0779 18.2794 37.0779 18.9895C37.0779 19.6996 37.6536 20.2752 38.3636 20.2752C38.3832 20.2752 38.4027 20.2748 38.4221 20.2739Z" fill="#191847"/>
</svg>
