<svg width="179" height="133" viewBox="0 0 179 133" fill="none" xmlns="http://www.w3.org/2000/svg">
<path d="M129.616 21.7443C107.75 5.32276 100.7 20.9196 81.7792 27.4061C66.6892 32.5753 44.9807 25.9318 32.4575 38.0516C21.5443 48.6077 24.3931 71.2766 32.3682 82.5217C42.0891 96.2194 59.76 97.8723 75.3105 91.2858C87.159 86.2594 95.1234 66.5465 108.318 67.1498C123.501 67.8638 124.2 86.852 140.058 85.7989C181.326 83.0537 144.802 33.143 129.616 21.7443Z" fill="#0ACF83"/>
<path opacity="0.9" d="M129.616 21.7443C107.75 5.32276 100.7 20.9196 81.7792 27.4061C66.6892 32.5753 44.9807 25.9318 32.4575 38.0516C21.5443 48.6077 24.3931 71.2766 32.3682 82.5217C42.0891 96.2194 59.76 97.8723 75.3105 91.2858C87.159 86.2594 95.1234 66.5465 108.318 67.1498C123.501 67.8638 124.2 86.852 140.058 85.7989C181.326 83.0537 144.802 33.143 129.616 21.7443Z" fill="black"/>
<path d="M89.2473 133C127.475 133 158.464 131.191 158.464 128.959C158.464 126.727 127.475 124.918 89.2473 124.918C51.02 124.918 20.0306 126.727 20.0306 128.959C20.0306 131.191 51.02 133 89.2473 133Z" fill="#F5F5F5"/>
<path d="M86.7912 74.1575H64.9827C64.6751 74.1575 64.4258 74.4068 64.4258 74.7144V83.8105C64.4258 84.118 64.6751 84.3674 64.9827 84.3674H86.7912C87.0987 84.3674 87.3481 84.118 87.3481 83.8105V74.7144C87.3481 74.4068 87.0987 74.1575 86.7912 74.1575Z" fill="#0ACF83"/>
<path opacity="0.6" d="M86.7912 74.1575H64.9827C64.6751 74.1575 64.4258 74.4068 64.4258 74.7144V83.8105C64.4258 84.118 64.6751 84.3674 64.9827 84.3674H86.7912C87.0987 84.3674 87.3481 84.118 87.3481 83.8105V74.7144C87.3481 74.4068 87.0987 74.1575 86.7912 74.1575Z" fill="black"/>
<path opacity="0.1" d="M86.7877 74.1575H64.9721C64.8244 74.1575 64.6827 74.2161 64.5783 74.3206C64.4738 74.425 64.4152 74.5667 64.4152 74.7144V77.631L75.7674 79.8657C75.8369 79.88 75.9086 79.88 75.9781 79.8657L87.3339 77.631V74.7144C87.3339 74.5685 87.2767 74.4285 87.1746 74.3243C87.0724 74.2202 86.9335 74.1603 86.7877 74.1575V74.1575Z" fill="black"/>
<path d="M87.2661 70.4233H80.6046V69.306C80.6037 68.8442 80.4199 68.4016 80.0933 68.0751C79.7668 67.7486 79.3243 67.5648 78.8625 67.5638H72.9115C72.4498 67.5648 72.0072 67.7486 71.6807 68.0751C71.3542 68.4016 71.1704 68.8442 71.1694 69.306V70.4233H64.5116C64.3658 70.4233 64.2259 70.4813 64.1228 70.5844C64.0197 70.6875 63.9618 70.8273 63.9618 70.9731V76.4743C63.9625 76.6013 64.0069 76.7242 64.0875 76.8224C64.1681 76.9205 64.28 76.988 64.4045 77.0134L75.7817 79.2517C75.8515 79.2624 75.9225 79.2624 75.9923 79.2517L87.3696 77.0134C87.4944 76.9881 87.6068 76.9208 87.688 76.8227C87.7692 76.7246 87.8143 76.6016 87.8158 76.4743V70.9731C87.8158 70.8273 87.7579 70.6875 87.6548 70.5844C87.5517 70.4813 87.4119 70.4233 87.2661 70.4233V70.4233ZM72.4938 69.306C72.4948 69.1951 72.5389 69.0891 72.617 69.0104C72.695 68.9317 72.8007 68.8866 72.9115 68.8847H78.8625C78.9733 68.8866 79.079 68.9317 79.1571 69.0104C79.2351 69.0891 79.2793 69.1951 79.2802 69.306V70.4233H72.4974L72.4938 69.306Z" fill="#0ACF83"/>
<path opacity="0.6" d="M87.2661 70.4233H80.6046V69.306C80.6037 68.8442 80.4199 68.4016 80.0933 68.0751C79.7668 67.7486 79.3243 67.5648 78.8625 67.5638H72.9115C72.4498 67.5648 72.0072 67.7486 71.6807 68.0751C71.3542 68.4016 71.1704 68.8442 71.1694 69.306V70.4233H64.5116C64.3658 70.4233 64.2259 70.4813 64.1228 70.5844C64.0197 70.6875 63.9618 70.8273 63.9618 70.9731V76.4743C63.9625 76.6013 64.0069 76.7242 64.0875 76.8224C64.1681 76.9205 64.28 76.988 64.4045 77.0134L75.7817 79.2517C75.8515 79.2624 75.9225 79.2624 75.9923 79.2517L87.3696 77.0134C87.4944 76.9881 87.6068 76.9208 87.688 76.8227C87.7692 76.7246 87.8143 76.6016 87.8158 76.4743V70.9731C87.8158 70.8273 87.7579 70.6875 87.6548 70.5844C87.5517 70.4813 87.4119 70.4233 87.2661 70.4233V70.4233ZM72.4938 69.306C72.4948 69.1951 72.5389 69.0891 72.617 69.0104C72.695 68.9317 72.8007 68.8866 72.9115 68.8847H78.8625C78.9733 68.8866 79.079 68.9317 79.1571 69.0104C79.2351 69.0891 79.2793 69.1951 79.2802 69.306V70.4233H72.4974L72.4938 69.306Z" fill="black"/>
<path d="M77.0632 77.7488H74.7143C74.4225 77.7488 74.1859 77.9853 74.1859 78.2771V79.7622C74.1859 80.054 74.4225 80.2905 74.7143 80.2905H77.0632C77.355 80.2905 77.5916 80.054 77.5916 79.7622V78.2771C77.5916 77.9853 77.355 77.7488 77.0632 77.7488Z" fill="#0ACF83"/>
<path opacity="0.3" d="M77.0632 77.7488H74.7143C74.4225 77.7488 74.1859 77.9853 74.1859 78.2771V79.7622C74.1859 80.054 74.4225 80.2905 74.7143 80.2905H77.0632C77.355 80.2905 77.5916 80.054 77.5916 79.7622V78.2771C77.5916 77.9853 77.355 77.7488 77.0632 77.7488Z" fill="black"/>
<path d="M86.7912 8.4856H64.9827C64.6751 8.4856 64.4258 8.73493 64.4258 9.0425V18.1386C64.4258 18.4462 64.6751 18.6955 64.9827 18.6955H86.7912C87.0987 18.6955 87.3481 18.4462 87.3481 18.1386V9.0425C87.3481 8.73493 87.0987 8.4856 86.7912 8.4856Z" fill="#0ACF83"/>
<path opacity="0.6" d="M86.7912 8.4856H64.9827C64.6751 8.4856 64.4258 8.73493 64.4258 9.0425V18.1386C64.4258 18.4462 64.6751 18.6955 64.9827 18.6955H86.7912C87.0987 18.6955 87.3481 18.4462 87.3481 18.1386V9.0425C87.3481 8.73493 87.0987 8.4856 86.7912 8.4856Z" fill="black"/>
<path opacity="0.1" d="M86.7877 8.4856H64.9721C64.8244 8.4856 64.6827 8.54427 64.5783 8.64871C64.4738 8.75315 64.4152 8.8948 64.4152 9.0425V11.9591L75.7674 14.1939C75.8369 14.2081 75.9086 14.2081 75.9781 14.1939L87.3339 11.9591V9.0425C87.3339 8.89664 87.2767 8.75659 87.1746 8.65245C87.0724 8.54831 86.9335 8.4884 86.7877 8.4856V8.4856Z" fill="black"/>
<path d="M87.2661 4.75145H80.6046V3.63408C80.6037 3.17233 80.4199 2.72977 80.0933 2.40326C79.7668 2.07676 79.3243 1.89291 78.8625 1.89197H72.9115C72.4498 1.89291 72.0072 2.07676 71.6807 2.40326C71.3542 2.72977 71.1704 3.17233 71.1694 3.63408V4.75145H64.5116C64.3658 4.75145 64.2259 4.80938 64.1228 4.91248C64.0197 5.01558 63.9618 5.15541 63.9618 5.30122V10.8024C63.9618 10.9296 64.006 11.0529 64.0867 11.1511C64.1674 11.2494 64.2797 11.3167 64.4045 11.3415L75.7817 13.5655C75.8512 13.5798 75.9229 13.5798 75.9923 13.5655L87.3696 11.3272C87.493 11.3038 87.6048 11.2391 87.6865 11.1437C87.7683 11.0483 87.8151 10.928 87.8194 10.8024V5.30122C87.8194 5.22872 87.8051 5.15694 87.7772 5.09C87.7494 5.02307 87.7085 4.96231 87.6571 4.91121C87.6057 4.86011 87.5447 4.81969 87.4776 4.79227C87.4104 4.76485 87.3386 4.75098 87.2661 4.75145V4.75145ZM72.4938 3.63408C72.4938 3.52297 72.5377 3.41636 72.616 3.33746C72.6942 3.25857 72.8004 3.21377 72.9115 3.21283H78.8625C78.973 3.21376 79.0787 3.25807 79.1568 3.3362C79.235 3.41432 79.2793 3.52002 79.2802 3.63051V4.74789H72.4974L72.4938 3.63408Z" fill="#0ACF83"/>
<path opacity="0.6" d="M87.2661 4.75145H80.6046V3.63408C80.6037 3.17233 80.4199 2.72977 80.0933 2.40326C79.7668 2.07676 79.3243 1.89291 78.8625 1.89197H72.9115C72.4498 1.89291 72.0072 2.07676 71.6807 2.40326C71.3542 2.72977 71.1704 3.17233 71.1694 3.63408V4.75145H64.5116C64.3658 4.75145 64.2259 4.80938 64.1228 4.91248C64.0197 5.01558 63.9618 5.15541 63.9618 5.30122V10.8024C63.9618 10.9296 64.006 11.0529 64.0867 11.1511C64.1674 11.2494 64.2797 11.3167 64.4045 11.3415L75.7817 13.5655C75.8512 13.5798 75.9229 13.5798 75.9923 13.5655L87.3696 11.3272C87.493 11.3038 87.6048 11.2391 87.6865 11.1437C87.7683 11.0483 87.8151 10.928 87.8194 10.8024V5.30122C87.8194 5.22872 87.8051 5.15694 87.7772 5.09C87.7494 5.02307 87.7085 4.96231 87.6571 4.91121C87.6057 4.86011 87.5447 4.81969 87.4776 4.79227C87.4104 4.76485 87.3386 4.75098 87.2661 4.75145V4.75145ZM72.4938 3.63408C72.4938 3.52297 72.5377 3.41636 72.616 3.33746C72.6942 3.25857 72.8004 3.21377 72.9115 3.21283H78.8625C78.973 3.21376 79.0787 3.25807 79.1568 3.3362C79.235 3.41432 79.2793 3.52002 79.2802 3.63051V4.74789H72.4974L72.4938 3.63408Z" fill="black"/>
<path d="M77.0632 12.0806H74.7143C74.4225 12.0806 74.1859 12.3171 74.1859 12.6089V14.094C74.1859 14.3858 74.4225 14.6223 74.7143 14.6223H77.0632C77.355 14.6223 77.5916 14.3858 77.5916 14.094V12.6089C77.5916 12.3171 77.355 12.0806 77.0632 12.0806Z" fill="#0ACF83"/>
<path opacity="0.3" d="M77.0632 12.0806H74.7143C74.4225 12.0806 74.1859 12.3171 74.1859 12.6089V14.094C74.1859 14.3858 74.4225 14.6223 74.7143 14.6223H77.0632C77.355 14.6223 77.5916 14.3858 77.5916 14.094V12.6089C77.5916 12.3171 77.355 12.0806 77.0632 12.0806Z" fill="black"/>
<path d="M52.8201 74.1575H31.0116C30.704 74.1575 30.4547 74.4068 30.4547 74.7144V83.8105C30.4547 84.118 30.704 84.3674 31.0116 84.3674H52.8201C53.1277 84.3674 53.377 84.118 53.377 83.8105V74.7144C53.377 74.4068 53.1277 74.1575 52.8201 74.1575Z" fill="#0ACF83"/>
<path opacity="0.6" d="M52.8201 74.1575H31.0116C30.704 74.1575 30.4547 74.4068 30.4547 74.7144V83.8105C30.4547 84.118 30.704 84.3674 31.0116 84.3674H52.8201C53.1277 84.3674 53.377 84.118 53.377 83.8105V74.7144C53.377 74.4068 53.1277 74.1575 52.8201 74.1575Z" fill="black"/>
<path opacity="0.1" d="M52.8344 74.1575H31.0116C30.8639 74.1575 30.7223 74.2161 30.6178 74.3206C30.5134 74.425 30.4547 74.5667 30.4547 74.7144V77.631L41.807 79.8657C41.8777 79.88 41.9505 79.88 42.0212 79.8657L53.377 77.631V74.7144C53.3771 74.5691 53.3203 74.4296 53.219 74.3255C53.1176 74.2215 52.9796 74.1612 52.8344 74.1575Z" fill="black"/>
<path d="M53.2913 70.4233H46.6299V69.306C46.629 68.8442 46.4451 68.4016 46.1186 68.0751C45.7921 67.7486 45.3495 67.5648 44.8878 67.5638H38.9404C38.4786 67.5648 38.036 67.7486 37.7095 68.0751C37.383 68.4016 37.1992 68.8442 37.1982 69.306V70.4233H30.5368C30.391 70.4233 30.2512 70.4813 30.1481 70.5844C30.045 70.6875 29.9871 70.8273 29.9871 70.9731V76.4743C29.9878 76.6013 30.0322 76.7242 30.1128 76.8224C30.1934 76.9205 30.3053 76.988 30.4297 77.0134L41.807 79.2517C41.878 79.2625 41.9502 79.2625 42.0212 79.2517L53.3984 77.0134C53.5229 76.988 53.6348 76.9205 53.7154 76.8224C53.796 76.7242 53.8404 76.6013 53.8411 76.4743V70.9731C53.8411 70.8273 53.7832 70.6875 53.6801 70.5844C53.577 70.4813 53.4371 70.4233 53.2913 70.4233V70.4233ZM38.5191 69.306C38.5209 69.1948 38.5659 69.0887 38.6445 69.0101C38.7231 68.9315 38.8292 68.8865 38.9404 68.8847H44.8878C44.9989 68.8865 45.105 68.9315 45.1836 69.0101C45.2622 69.0887 45.3072 69.1948 45.309 69.306V70.4233H38.5262L38.5191 69.306Z" fill="#0ACF83"/>
<path opacity="0.6" d="M53.2913 70.4233H46.6299V69.306C46.629 68.8442 46.4451 68.4016 46.1186 68.0751C45.7921 67.7486 45.3495 67.5648 44.8878 67.5638H38.9404C38.4786 67.5648 38.036 67.7486 37.7095 68.0751C37.383 68.4016 37.1992 68.8442 37.1982 69.306V70.4233H30.5368C30.391 70.4233 30.2512 70.4813 30.1481 70.5844C30.045 70.6875 29.9871 70.8273 29.9871 70.9731V76.4743C29.9878 76.6013 30.0322 76.7242 30.1128 76.8224C30.1934 76.9205 30.3053 76.988 30.4297 77.0134L41.807 79.2517C41.878 79.2625 41.9502 79.2625 42.0212 79.2517L53.3984 77.0134C53.5229 76.988 53.6348 76.9205 53.7154 76.8224C53.796 76.7242 53.8404 76.6013 53.8411 76.4743V70.9731C53.8411 70.8273 53.7832 70.6875 53.6801 70.5844C53.577 70.4813 53.4371 70.4233 53.2913 70.4233V70.4233ZM38.5191 69.306C38.5209 69.1948 38.5659 69.0887 38.6445 69.0101C38.7231 68.9315 38.8292 68.8865 38.9404 68.8847H44.8878C44.9989 68.8865 45.105 68.9315 45.1836 69.0101C45.2622 69.0887 45.3072 69.1948 45.309 69.306V70.4233H38.5262L38.5191 69.306Z" fill="black"/>
<path d="M43.0886 77.7488H40.7396C40.4479 77.7488 40.2113 77.9853 40.2113 78.2771V79.7622C40.2113 80.054 40.4479 80.2905 40.7396 80.2905H43.0886C43.3804 80.2905 43.617 80.054 43.617 79.7622V78.2771C43.617 77.9853 43.3804 77.7488 43.0886 77.7488Z" fill="#0ACF83"/>
<path opacity="0.3" d="M43.0886 77.7488H40.7396C40.4479 77.7488 40.2113 77.9853 40.2113 78.2771V79.7622C40.2113 80.054 40.4479 80.2905 40.7396 80.2905H43.0886C43.3804 80.2905 43.617 80.054 43.617 79.7622V78.2771C43.617 77.9853 43.3804 77.7488 43.0886 77.7488Z" fill="black"/>
<path d="M52.8201 8.4856H31.0116C30.704 8.4856 30.4547 8.73493 30.4547 9.0425V18.1386C30.4547 18.4462 30.704 18.6955 31.0116 18.6955H52.8201C53.1277 18.6955 53.377 18.4462 53.377 18.1386V9.0425C53.377 8.73493 53.1277 8.4856 52.8201 8.4856Z" fill="#0ACF83"/>
<path opacity="0.6" d="M52.8201 8.4856H31.0116C30.704 8.4856 30.4547 8.73493 30.4547 9.0425V18.1386C30.4547 18.4462 30.704 18.6955 31.0116 18.6955H52.8201C53.1277 18.6955 53.377 18.4462 53.377 18.1386V9.0425C53.377 8.73493 53.1277 8.4856 52.8201 8.4856Z" fill="black"/>
<path opacity="0.1" d="M52.8344 8.4856H31.0116C30.8639 8.4856 30.7223 8.54427 30.6178 8.64871C30.5134 8.75315 30.4547 8.8948 30.4547 9.0425V11.9591L41.807 14.1939C41.8777 14.2082 41.9505 14.2082 42.0212 14.1939L53.377 11.9591V9.0425C53.3771 8.89724 53.3203 8.75771 53.219 8.65368C53.1176 8.54964 52.9796 8.48932 52.8344 8.4856V8.4856Z" fill="black"/>
<path d="M53.2913 4.75158H46.6299V3.6342C46.629 3.17245 46.4451 2.72989 46.1186 2.40338C45.7921 2.07688 45.3495 1.89303 44.8878 1.89209H38.9404C38.4786 1.89303 38.036 2.07688 37.7095 2.40338C37.383 2.72989 37.1992 3.17245 37.1982 3.6342V4.75158H30.5368C30.391 4.75158 30.2512 4.8095 30.1481 4.9126C30.045 5.0157 29.9871 5.15553 29.9871 5.30134V10.8025C29.9871 10.9297 30.0312 11.053 30.112 11.1513C30.1927 11.2496 30.305 11.3168 30.4297 11.3416L41.807 13.5656C41.8777 13.58 41.9505 13.58 42.0212 13.5656L53.3984 11.3273C53.5232 11.3025 53.6355 11.2353 53.7162 11.137C53.7969 11.0387 53.8411 10.9155 53.8411 10.7883V5.30134C53.8411 5.15553 53.7832 5.0157 53.6801 4.9126C53.577 4.8095 53.4371 4.75158 53.2913 4.75158V4.75158ZM38.5191 3.6342C38.52 3.52277 38.5647 3.41616 38.6435 3.33736C38.7223 3.25857 38.8289 3.21388 38.9404 3.21295H44.8878C44.9986 3.21387 45.1047 3.25806 45.1834 3.33609C45.2621 3.41412 45.3072 3.51982 45.309 3.63063V4.74801H38.5262L38.5191 3.6342Z" fill="#0ACF83"/>
<path opacity="0.6" d="M53.2913 4.75158H46.6299V3.6342C46.629 3.17245 46.4451 2.72989 46.1186 2.40338C45.7921 2.07688 45.3495 1.89303 44.8878 1.89209H38.9404C38.4786 1.89303 38.036 2.07688 37.7095 2.40338C37.383 2.72989 37.1992 3.17245 37.1982 3.6342V4.75158H30.5368C30.391 4.75158 30.2512 4.8095 30.1481 4.9126C30.045 5.0157 29.9871 5.15553 29.9871 5.30134V10.8025C29.9871 10.9297 30.0312 11.053 30.112 11.1513C30.1927 11.2496 30.305 11.3168 30.4297 11.3416L41.807 13.5656C41.8777 13.58 41.9505 13.58 42.0212 13.5656L53.3984 11.3273C53.5232 11.3025 53.6355 11.2353 53.7162 11.137C53.7969 11.0387 53.8411 10.9155 53.8411 10.7883V5.30134C53.8411 5.15553 53.7832 5.0157 53.6801 4.9126C53.577 4.8095 53.4371 4.75158 53.2913 4.75158V4.75158ZM38.5191 3.6342C38.52 3.52277 38.5647 3.41616 38.6435 3.33736C38.7223 3.25857 38.8289 3.21388 38.9404 3.21295H44.8878C44.9986 3.21387 45.1047 3.25806 45.1834 3.33609C45.2621 3.41412 45.3072 3.51982 45.309 3.63063V4.74801H38.5262L38.5191 3.6342Z" fill="black"/>
<path d="M43.0886 12.0806H40.7396C40.4479 12.0806 40.2113 12.3171 40.2113 12.6089V14.094C40.2113 14.3858 40.4479 14.6223 40.7396 14.6223H43.0886C43.3804 14.6223 43.617 14.3858 43.617 14.094V12.6089C43.617 12.3171 43.3804 12.0806 43.0886 12.0806Z" fill="#0ACF83"/>
<path opacity="0.3" d="M43.0886 12.0806H40.7396C40.4479 12.0806 40.2113 12.3171 40.2113 12.6089V14.094C40.2113 14.3858 40.4479 14.6223 40.7396 14.6223H43.0886C43.3804 14.6223 43.617 14.3858 43.617 14.094V12.6089C43.617 12.3171 43.3804 12.0806 43.0886 12.0806Z" fill="black"/>
<path d="M49.9785 51.5314H31.0116C30.863 51.5314 30.7204 51.4724 30.6153 51.3673C30.5102 51.2622 30.4512 51.1196 30.4512 50.971V41.8784C30.4517 41.8035 30.4675 41.7294 30.4976 41.6607C30.5121 41.6286 30.5288 41.5976 30.5476 41.5679C30.5674 41.5373 30.5915 41.5097 30.619 41.4858C30.7229 41.3812 30.8642 41.3221 31.0116 41.3215H48.9646C48.8153 42.5674 48.7663 43.8233 48.8183 45.0771C48.8183 45.2805 48.8183 45.484 48.8504 45.6839C48.8754 46.0588 48.904 46.4372 48.9468 46.812C49.1305 48.416 49.4762 49.9972 49.9785 51.5314V51.5314Z" fill="#0ACF83"/>
<path opacity="0.6" d="M49.9785 51.5314H31.0116C30.863 51.5314 30.7204 51.4724 30.6153 51.3673C30.5102 51.2622 30.4512 51.1196 30.4512 50.971V41.8784C30.4517 41.8035 30.4675 41.7294 30.4976 41.6607C30.5121 41.6286 30.5288 41.5976 30.5476 41.5679C30.5674 41.5373 30.5915 41.5097 30.619 41.4858C30.7229 41.3812 30.8642 41.3221 31.0116 41.3215H48.9646C48.8153 42.5674 48.7663 43.8233 48.8183 45.0771C48.8183 45.2805 48.8183 45.484 48.8504 45.6839C48.8754 46.0588 48.904 46.4372 48.9468 46.812C49.1305 48.416 49.4762 49.9972 49.9785 51.5314V51.5314Z" fill="black"/>
<path opacity="0.1" d="M48.9646 41.3215C48.8153 42.5674 48.7663 43.8233 48.8183 45.0771C48.8183 45.2805 48.8183 45.484 48.8504 45.6839L43.6169 46.7121L42.0176 47.0262C41.9485 47.0441 41.8761 47.0441 41.807 47.0262L40.2112 46.7156L30.4547 44.795V41.8749C30.4558 41.8015 30.4704 41.7289 30.4976 41.6607C30.5121 41.6286 30.5288 41.5976 30.5475 41.5679C30.5674 41.5373 30.5914 41.5097 30.6189 41.4858C30.7229 41.3812 30.8641 41.3221 31.0116 41.3215H48.9646Z" fill="black"/>
<path d="M49.7107 37.5874H46.6335V36.47C46.6316 36.0079 46.447 35.5654 46.1199 35.239C45.7928 34.9126 45.3499 34.7288 44.8878 34.7279H38.9404C38.4783 34.7279 38.0352 34.9114 37.7085 35.2382C37.3818 35.5649 37.1982 36.008 37.1982 36.47V37.5874H30.5368C30.4646 37.5874 30.3931 37.6016 30.3264 37.6292C30.2597 37.6569 30.1991 37.6974 30.1481 37.7484C30.097 37.7995 30.0565 37.8601 30.0289 37.9268C30.0013 37.9935 29.9871 38.065 29.9871 38.1372V43.6348C29.9871 43.7629 30.0316 43.887 30.113 43.986C30.1944 44.085 30.3076 44.1526 30.4333 44.1774H30.4547L40.2112 46.1016L41.807 46.4122C41.8765 46.4264 41.9481 46.4264 42.0176 46.4122L43.6169 46.098L48.8183 45.0735C48.7663 43.8197 48.8153 42.5638 48.9646 41.3179C49.1129 40.0564 49.3624 38.8089 49.7107 37.5874V37.5874ZM38.5191 36.47C38.521 36.3592 38.5661 36.2535 38.6448 36.1755C38.7235 36.0974 38.8295 36.0533 38.9404 36.0523H44.8878C44.9983 36.0533 45.104 36.0976 45.1821 36.1757C45.2602 36.2538 45.3046 36.3595 45.3055 36.47V37.5874H38.5227L38.5191 36.47Z" fill="#0ACF83"/>
<path opacity="0.6" d="M49.7107 37.5874H46.6335V36.47C46.6316 36.0079 46.447 35.5654 46.1199 35.239C45.7928 34.9126 45.3499 34.7288 44.8878 34.7279H38.9404C38.4783 34.7279 38.0352 34.9114 37.7085 35.2382C37.3818 35.5649 37.1982 36.008 37.1982 36.47V37.5874H30.5368C30.4646 37.5874 30.3931 37.6016 30.3264 37.6292C30.2597 37.6569 30.1991 37.6974 30.1481 37.7484C30.097 37.7995 30.0565 37.8601 30.0289 37.9268C30.0013 37.9935 29.9871 38.065 29.9871 38.1372V43.6348C29.9871 43.7629 30.0316 43.887 30.113 43.986C30.1944 44.085 30.3076 44.1526 30.4333 44.1774H30.4547L40.2112 46.1016L41.807 46.4122C41.8765 46.4264 41.9481 46.4264 42.0176 46.4122L43.6169 46.098L48.8183 45.0735C48.7663 43.8197 48.8153 42.5638 48.9646 41.3179C49.1129 40.0564 49.3624 38.8089 49.7107 37.5874V37.5874ZM38.5191 36.47C38.521 36.3592 38.5661 36.2535 38.6448 36.1755C38.7235 36.0974 38.8295 36.0533 38.9404 36.0523H44.8878C44.9983 36.0533 45.104 36.0976 45.1821 36.1757C45.2602 36.2538 45.3046 36.3595 45.3055 36.47V37.5874H38.5227L38.5191 36.47Z" fill="black"/>
<path d="M43.0886 44.9127H40.7396C40.4479 44.9127 40.2113 45.1493 40.2113 45.4411V46.9261C40.2113 47.2179 40.4479 47.4545 40.7396 47.4545H43.0886C43.3804 47.4545 43.617 47.2179 43.617 46.9261V45.4411C43.617 45.1493 43.3804 44.9127 43.0886 44.9127Z" fill="#0ACF83"/>
<path opacity="0.3" d="M43.0886 44.9127H40.7396C40.4479 44.9127 40.2113 45.1493 40.2113 45.4411V46.9261C40.2113 47.2179 40.4479 47.4545 40.7396 47.4545H43.0886C43.3804 47.4545 43.617 47.2179 43.617 46.9261V45.4411C43.617 45.1493 43.3804 44.9127 43.0886 44.9127Z" fill="black"/>
<path d="M98.9538 84.3638H120.762C121.07 84.3638 121.319 84.1144 121.319 83.8069V74.7108C121.319 74.4032 121.07 74.1539 120.762 74.1539H98.9538C98.6463 74.1539 98.3969 74.4032 98.3969 74.7108V83.8069C98.3969 84.1144 98.6463 84.3638 98.9538 84.3638Z" fill="#0ACF83"/>
<path opacity="0.6" d="M98.9538 84.3638H120.762C121.07 84.3638 121.319 84.1144 121.319 83.8069V74.7108C121.319 74.4032 121.07 74.1539 120.762 74.1539H98.9538C98.6463 74.1539 98.3969 74.4032 98.3969 74.7108V83.8069C98.3969 84.1144 98.6463 84.3638 98.9538 84.3638Z" fill="black"/>
<path opacity="0.1" d="M98.9574 74.1575H120.762C120.91 74.1575 121.052 74.2162 121.156 74.3206C121.261 74.4251 121.319 74.5667 121.319 74.7144V77.631L109.953 79.8658C109.883 79.88 109.812 79.88 109.742 79.8658L98.3862 77.631V74.7144C98.3862 74.6401 98.4011 74.5665 98.4299 74.498C98.4588 74.4294 98.5011 74.3674 98.5544 74.3155C98.6076 74.2636 98.6707 74.2229 98.7399 74.1957C98.8091 74.1686 98.8831 74.1556 98.9574 74.1575V74.1575Z" fill="black"/>
<path d="M98.4826 70.4233H105.144V69.306C105.145 68.8442 105.329 68.4016 105.655 68.0751C105.982 67.7486 106.424 67.5648 106.886 67.5638H112.837C113.299 67.5648 113.741 67.7486 114.068 68.0751C114.394 68.4016 114.578 68.8442 114.579 69.306V70.4233H121.237C121.309 70.4233 121.381 70.4375 121.448 70.4652C121.514 70.4928 121.575 70.5333 121.626 70.5844C121.677 70.6354 121.717 70.696 121.745 70.7627C121.773 70.8294 121.787 70.9009 121.787 70.9731V76.4743C121.786 76.6013 121.742 76.7242 121.661 76.8224C121.581 76.9205 121.469 76.988 121.344 77.0134L109.953 79.2517C109.882 79.2625 109.809 79.2625 109.738 79.2517L98.3612 77.0134C98.2368 76.988 98.1249 76.9205 98.0443 76.8224C97.9637 76.7242 97.9193 76.6013 97.9186 76.4743V70.9731C97.9186 70.8997 97.9332 70.827 97.9617 70.7594C97.9903 70.6917 98.032 70.6305 98.0846 70.5792C98.1372 70.528 98.1995 70.4878 98.2678 70.461C98.3362 70.4342 98.4092 70.4214 98.4826 70.4233V70.4233ZM113.255 69.306C113.254 69.1951 113.21 69.0891 113.132 69.0104C113.054 68.9317 112.948 68.8866 112.837 68.8847H106.886C106.775 68.8865 106.669 68.9315 106.59 69.0101C106.512 69.0887 106.467 69.1948 106.465 69.306V70.4233H113.248L113.255 69.306Z" fill="#0ACF83"/>
<path opacity="0.6" d="M98.4826 70.4233H105.144V69.306C105.145 68.8442 105.329 68.4016 105.655 68.0751C105.982 67.7486 106.424 67.5648 106.886 67.5638H112.837C113.299 67.5648 113.741 67.7486 114.068 68.0751C114.394 68.4016 114.578 68.8442 114.579 69.306V70.4233H121.237C121.309 70.4233 121.381 70.4375 121.448 70.4652C121.514 70.4928 121.575 70.5333 121.626 70.5844C121.677 70.6354 121.717 70.696 121.745 70.7627C121.773 70.8294 121.787 70.9009 121.787 70.9731V76.4743C121.786 76.6013 121.742 76.7242 121.661 76.8224C121.581 76.9205 121.469 76.988 121.344 77.0134L109.953 79.2517C109.882 79.2625 109.809 79.2625 109.738 79.2517L98.3612 77.0134C98.2368 76.988 98.1249 76.9205 98.0443 76.8224C97.9637 76.7242 97.9193 76.6013 97.9186 76.4743V70.9731C97.9186 70.8997 97.9332 70.827 97.9617 70.7594C97.9903 70.6917 98.032 70.6305 98.0846 70.5792C98.1372 70.528 98.1995 70.4878 98.2678 70.461C98.3362 70.4342 98.4092 70.4214 98.4826 70.4233V70.4233ZM113.255 69.306C113.254 69.1951 113.21 69.0891 113.132 69.0104C113.054 68.9317 112.948 68.8866 112.837 68.8847H106.886C106.775 68.8865 106.669 68.9315 106.59 69.0101C106.512 69.0887 106.467 69.1948 106.465 69.306V70.4233H113.248L113.255 69.306Z" fill="black"/>
<path d="M108.685 80.2905H111.034C111.326 80.2905 111.563 80.054 111.563 79.7622V78.2771C111.563 77.9853 111.326 77.7488 111.034 77.7488H108.685C108.394 77.7488 108.157 77.9853 108.157 78.2771V79.7622C108.157 80.054 108.394 80.2905 108.685 80.2905Z" fill="#0ACF83"/>
<path opacity="0.3" d="M108.685 80.2905H111.034C111.326 80.2905 111.563 80.054 111.563 79.7622V78.2771C111.563 77.9853 111.326 77.7488 111.034 77.7488H108.685C108.394 77.7488 108.157 77.9853 108.157 78.2771V79.7622C108.157 80.054 108.394 80.2905 108.685 80.2905Z" fill="black"/>
<path d="M98.9538 18.692L120.762 18.692C121.07 18.692 121.319 18.4427 121.319 18.1351V9.03902C121.319 8.73145 121.07 8.48211 120.762 8.48211L98.9538 8.48211C98.6463 8.48211 98.3969 8.73145 98.3969 9.03902V18.1351C98.3969 18.4427 98.6463 18.692 98.9538 18.692Z" fill="#0ACF83"/>
<path opacity="0.6" d="M98.9538 18.692L120.762 18.692C121.07 18.692 121.319 18.4427 121.319 18.1351V9.03902C121.319 8.73145 121.07 8.48211 120.762 8.48211L98.9538 8.48211C98.6463 8.48211 98.3969 8.73145 98.3969 9.03902V18.1351C98.3969 18.4427 98.6463 18.692 98.9538 18.692Z" fill="black"/>
<path opacity="0.1" d="M98.9574 8.4856H120.762C120.91 8.4856 121.052 8.54427 121.156 8.64871C121.261 8.75315 121.319 8.8948 121.319 9.0425V11.9591L109.953 14.1939C109.883 14.2081 109.812 14.2081 109.742 14.1939L98.4005 11.9591V9.0425C98.4005 8.8948 98.4592 8.75315 98.5636 8.64871C98.6681 8.54427 98.8097 8.4856 98.9574 8.4856V8.4856Z" fill="black"/>
<path d="M98.4826 4.75149H105.144V3.63411C105.145 3.17236 105.329 2.7298 105.655 2.4033C105.982 2.07679 106.424 1.89294 106.886 1.892H112.837C113.067 1.89059 113.295 1.93458 113.508 2.02146C113.72 2.10833 113.914 2.23637 114.077 2.39824C114.24 2.5601 114.37 2.7526 114.459 2.96468C114.547 3.17677 114.593 3.40426 114.594 3.63411V4.75149H121.251C121.397 4.75149 121.537 4.80941 121.64 4.91251C121.743 5.01561 121.801 5.15544 121.801 5.30125V10.8025C121.801 10.9296 121.757 11.0529 121.676 11.1512C121.596 11.2495 121.483 11.3167 121.359 11.3415L109.953 13.5656C109.882 13.5799 109.809 13.5799 109.738 13.5656L98.3612 11.3272C98.2365 11.3025 98.1242 11.2352 98.0435 11.1369C97.9628 11.0386 97.9186 10.9154 97.9186 10.7882V5.30125C97.9186 5.22784 97.9332 5.15516 97.9617 5.08751C97.9903 5.01987 98.032 4.95861 98.0846 4.90737C98.1372 4.85613 98.1995 4.81594 98.2678 4.78916C98.3362 4.76239 98.4092 4.74958 98.4826 4.75149ZM113.255 3.63411C113.255 3.523 113.211 3.41639 113.133 3.3375C113.055 3.2586 112.948 3.2138 112.837 3.21286H106.886C106.775 3.21378 106.669 3.25797 106.591 3.336C106.512 3.41403 106.467 3.51973 106.465 3.63054V4.74792H113.248L113.255 3.63411Z" fill="#0ACF83"/>
<path opacity="0.6" d="M98.4826 4.75149H105.144V3.63411C105.145 3.17236 105.329 2.7298 105.655 2.4033C105.982 2.07679 106.424 1.89294 106.886 1.892H112.837C113.067 1.89059 113.295 1.93458 113.508 2.02146C113.72 2.10833 113.914 2.23637 114.077 2.39824C114.24 2.5601 114.37 2.7526 114.459 2.96468C114.547 3.17677 114.593 3.40426 114.594 3.63411V4.75149H121.251C121.397 4.75149 121.537 4.80941 121.64 4.91251C121.743 5.01561 121.801 5.15544 121.801 5.30125V10.8025C121.801 10.9296 121.757 11.0529 121.676 11.1512C121.596 11.2495 121.483 11.3167 121.359 11.3415L109.953 13.5656C109.882 13.5799 109.809 13.5799 109.738 13.5656L98.3612 11.3272C98.2365 11.3025 98.1242 11.2352 98.0435 11.1369C97.9628 11.0386 97.9186 10.9154 97.9186 10.7882V5.30125C97.9186 5.22784 97.9332 5.15516 97.9617 5.08751C97.9903 5.01987 98.032 4.95861 98.0846 4.90737C98.1372 4.85613 98.1995 4.81594 98.2678 4.78916C98.3362 4.76239 98.4092 4.74958 98.4826 4.75149ZM113.255 3.63411C113.255 3.523 113.211 3.41639 113.133 3.3375C113.055 3.2586 112.948 3.2138 112.837 3.21286H106.886C106.775 3.21378 106.669 3.25797 106.591 3.336C106.512 3.41403 106.467 3.51973 106.465 3.63054V4.74792H113.248L113.255 3.63411Z" fill="black"/>
<path d="M108.685 14.6188H111.034C111.326 14.6188 111.563 14.3822 111.563 14.0904V12.6054C111.563 12.3136 111.326 12.077 111.034 12.077H108.685C108.394 12.077 108.157 12.3136 108.157 12.6054V14.0904C108.157 14.3822 108.394 14.6188 108.685 14.6188Z" fill="#0ACF83"/>
<path opacity="0.3" d="M108.685 14.6188H111.034C111.326 14.6188 111.563 14.3822 111.563 14.0904V12.6054C111.563 12.3136 111.326 12.077 111.034 12.077H108.685C108.394 12.077 108.157 12.3136 108.157 12.6054V14.0904C108.157 14.3822 108.394 14.6188 108.685 14.6188Z" fill="black"/>
<path d="M101.81 51.5314H120.766C120.914 51.5305 121.056 51.471 121.16 51.366C121.264 51.261 121.323 51.119 121.323 50.971V41.8784C121.322 41.8035 121.307 41.7294 121.276 41.6607C121.263 41.6279 121.247 41.5968 121.226 41.5679C121.207 41.5373 121.183 41.5097 121.155 41.4858C121.104 41.4337 121.043 41.3923 120.975 41.3641C120.908 41.3359 120.835 41.3214 120.762 41.3215H102.813C102.962 42.5674 103.011 43.8233 102.959 45.0771C102.959 45.2805 102.959 45.484 102.927 45.6839C102.906 46.0588 102.874 46.4372 102.831 46.812C102.651 48.4156 102.308 49.9968 101.81 51.5314V51.5314Z" fill="#0ACF83"/>
<path opacity="0.6" d="M101.81 51.5314H120.766C120.914 51.5305 121.056 51.471 121.16 51.366C121.264 51.261 121.323 51.119 121.323 50.971V41.8784C121.322 41.8035 121.307 41.7294 121.276 41.6607C121.263 41.6279 121.247 41.5968 121.226 41.5679C121.207 41.5373 121.183 41.5097 121.155 41.4858C121.104 41.4337 121.043 41.3923 120.975 41.3641C120.908 41.3359 120.835 41.3214 120.762 41.3215H102.813C102.962 42.5674 103.011 43.8233 102.959 45.0771C102.959 45.2805 102.959 45.484 102.927 45.6839C102.906 46.0588 102.874 46.4372 102.831 46.812C102.651 48.4156 102.308 49.9968 101.81 51.5314V51.5314Z" fill="black"/>
<path opacity="0.1" d="M102.813 41.3215C102.962 42.5674 103.011 43.8233 102.959 45.0771C102.959 45.2805 102.959 45.484 102.927 45.6839L108.168 46.7121L109.767 47.0262C109.836 47.0441 109.909 47.0441 109.978 47.0262L111.573 46.7156L121.33 44.795V41.8749C121.329 41.8015 121.314 41.7289 121.287 41.6607C121.274 41.6279 121.257 41.5968 121.237 41.5679C121.217 41.5373 121.193 41.5097 121.166 41.4858C121.114 41.4337 121.053 41.3923 120.986 41.3641C120.918 41.3359 120.846 41.3214 120.773 41.3215H102.813Z" fill="black"/>
<path d="M102.063 37.5874H105.144V36.47C105.145 36.0083 105.329 35.5657 105.655 35.2392C105.982 34.9127 106.424 34.7288 106.886 34.7279H112.834C113.296 34.7279 113.739 34.9113 114.067 35.2379C114.394 35.5645 114.578 36.0077 114.579 36.47V37.5874H121.237C121.383 37.5874 121.523 37.6453 121.626 37.7484C121.729 37.8515 121.787 37.9913 121.787 38.1372V43.6348C121.787 43.7624 121.743 43.8861 121.662 43.985C121.582 44.0839 121.469 44.1519 121.344 44.1774H121.319L111.563 46.1016L109.953 46.4086C109.883 46.4228 109.812 46.4228 109.742 46.4086L108.143 46.0944L102.941 45.0699C103.043 42.5395 102.741 40.009 102.049 37.5731L102.063 37.5874ZM113.255 36.47C113.253 36.3592 113.208 36.2535 113.129 36.1755C113.051 36.0974 112.944 36.0533 112.834 36.0523H106.886C106.776 36.0533 106.67 36.0976 106.592 36.1757C106.514 36.2538 106.469 36.3595 106.468 36.47V37.5874H113.251L113.255 36.47Z" fill="#0ACF83"/>
<path opacity="0.6" d="M102.063 37.5874H105.144V36.47C105.145 36.0083 105.329 35.5657 105.655 35.2392C105.982 34.9127 106.424 34.7288 106.886 34.7279H112.834C113.296 34.7279 113.739 34.9113 114.067 35.2379C114.394 35.5645 114.578 36.0077 114.579 36.47V37.5874H121.237C121.383 37.5874 121.523 37.6453 121.626 37.7484C121.729 37.8515 121.787 37.9913 121.787 38.1372V43.6348C121.787 43.7624 121.743 43.8861 121.662 43.985C121.582 44.0839 121.469 44.1519 121.344 44.1774H121.319L111.563 46.1016L109.953 46.4086C109.883 46.4228 109.812 46.4228 109.742 46.4086L108.143 46.0944L102.941 45.0699C103.043 42.5395 102.741 40.009 102.049 37.5731L102.063 37.5874ZM113.255 36.47C113.253 36.3592 113.208 36.2535 113.129 36.1755C113.051 36.0974 112.944 36.0533 112.834 36.0523H106.886C106.776 36.0533 106.67 36.0976 106.592 36.1757C106.514 36.2538 106.469 36.3595 106.468 36.47V37.5874H113.251L113.255 36.47Z" fill="black"/>
<path d="M108.685 47.4581H111.034C111.326 47.4581 111.563 47.2216 111.563 46.9298V45.4447C111.563 45.1529 111.326 44.9164 111.034 44.9164H108.685C108.394 44.9164 108.157 45.1529 108.157 45.4447V46.9298C108.157 47.2216 108.394 47.4581 108.685 47.4581Z" fill="#0ACF83"/>
<path opacity="0.3" d="M108.685 47.4581H111.034C111.326 47.4581 111.563 47.2216 111.563 46.9298V45.4447C111.563 45.1529 111.326 44.9164 111.034 44.9164H108.685C108.394 44.9164 108.157 45.1529 108.157 45.4447V46.9298C108.157 47.2216 108.394 47.4581 108.685 47.4581Z" fill="black"/>
<path d="M92.7102 39.1046H61.3736C60.932 39.1046 60.574 39.4626 60.574 39.9043V52.9737C60.574 53.4153 60.932 53.7733 61.3736 53.7733H92.7102C93.1518 53.7733 93.5098 53.4153 93.5098 52.9737V39.9043C93.5098 39.4626 93.1518 39.1046 92.7102 39.1046Z" fill="#0ACF83"/>
<path d="M81.315 36.77H72.7651C72.1168 36.769 71.4954 36.5111 71.037 36.0527C70.5786 35.5943 70.3206 34.9728 70.3197 34.3246V32.1291C70.3206 31.4808 70.5786 30.8594 71.037 30.401C71.4954 29.9426 72.1168 29.6847 72.7651 29.6837H81.315C81.9635 29.6837 82.5855 29.9414 83.0441 30.3999C83.5027 30.8585 83.7604 31.4805 83.7604 32.1291V34.3139C83.7618 34.6359 83.6996 34.955 83.5773 35.253C83.455 35.5509 83.2751 35.8217 83.0479 36.0499C82.8207 36.2782 82.5507 36.4592 82.2533 36.5828C81.9559 36.7064 81.637 36.77 81.315 36.77V36.77ZM72.7651 31.4794C72.593 31.4812 72.4284 31.5501 72.3064 31.6715C72.1844 31.7928 72.1146 31.957 72.1118 32.1291V34.3139C72.1118 34.489 72.1814 34.657 72.3052 34.7809C72.4291 34.9047 72.5971 34.9743 72.7722 34.9743H81.3221C81.4973 34.9743 81.6653 34.9047 81.7891 34.7809C81.913 34.657 81.9825 34.489 81.9825 34.3139V32.1291C81.9825 31.9539 81.913 31.786 81.7891 31.6621C81.6653 31.5382 81.4973 31.4687 81.3221 31.4687L72.7651 31.4794Z" fill="#0ACF83"/>
<path opacity="0.2" d="M92.7066 39.1046H61.3772C61.2719 39.1042 61.1675 39.1245 61.0701 39.1645C60.9727 39.2044 60.8841 39.2633 60.8095 39.3376C60.7348 39.4119 60.6756 39.5002 60.6352 39.5974C60.5948 39.6947 60.574 39.799 60.574 39.9043V44.0989L76.8884 47.3118C76.9884 47.3336 77.0919 47.3336 77.1918 47.3118L93.5098 44.0989V39.9043C93.5098 39.799 93.489 39.6947 93.4486 39.5974C93.4082 39.5002 93.349 39.4119 93.2744 39.3376C93.1997 39.2633 93.1111 39.2044 93.0137 39.1645C92.9163 39.1245 92.8119 39.1042 92.7066 39.1046V39.1046Z" fill="black"/>
<path d="M93.5312 43.1958L77.1847 46.4087C77.0831 46.4265 76.9792 46.4265 76.8777 46.4087L60.5311 43.1958C60.3515 43.1603 60.1897 43.0638 60.0732 42.9226C59.9568 42.7813 59.8927 42.6041 59.8921 42.4211V34.5316C59.8921 34.428 59.9125 34.3254 59.9521 34.2297C59.9918 34.134 60.0499 34.047 60.1232 33.9738C60.1964 33.9005 60.2834 33.8424 60.3791 33.8027C60.4748 33.7631 60.5774 33.7427 60.681 33.7427H93.3884C93.492 33.7427 93.5946 33.7631 93.6903 33.8027C93.7861 33.8424 93.873 33.9005 93.9463 33.9738C94.0195 34.047 94.0777 34.134 94.1173 34.2297C94.157 34.3254 94.1774 34.428 94.1774 34.5316V42.4354C94.1738 42.6172 94.1075 42.7921 93.9898 42.9307C93.872 43.0692 93.71 43.1629 93.5312 43.1958Z" fill="#0ACF83"/>
<path d="M78.7339 44.2703H75.3533C74.9353 44.2703 74.5964 44.6091 74.5964 45.0271V47.1654C74.5964 47.5834 74.9353 47.9223 75.3533 47.9223H78.7339C79.1519 47.9223 79.4908 47.5834 79.4908 47.1654V45.0271C79.4908 44.6091 79.1519 44.2703 78.7339 44.2703Z" fill="#0ACF83"/>
<path opacity="0.4" d="M78.7339 44.2703H75.3533C74.9353 44.2703 74.5964 44.6091 74.5964 45.0271V47.1654C74.5964 47.5834 74.9353 47.9223 75.3533 47.9223H78.7339C79.1519 47.9223 79.4908 47.5834 79.4908 47.1654V45.0271C79.4908 44.6091 79.1519 44.2703 78.7339 44.2703Z" fill="black"/>
<path d="M135.977 47.1975C136.388 48.0436 136.691 48.8432 137.048 49.6786C137.405 50.5139 137.666 51.3457 137.944 52.1989C138.509 53.9288 138.926 55.7035 139.19 57.5038C139.226 57.7287 139.244 57.9715 139.269 58.2178L139.304 58.5748C139.304 58.639 139.304 58.6854 139.304 58.7604V58.9924C139.316 59.5338 139.27 60.0748 139.165 60.606C138.988 61.5294 138.736 62.4367 138.412 63.3192C137.802 64.9966 137.042 66.6156 136.142 68.1564L134.328 67.3888C134.731 65.761 135.138 64.101 135.445 62.4981C135.596 61.7301 135.702 60.9542 135.763 60.1741C135.784 59.8552 135.777 59.535 135.742 59.2173L135.702 58.9924L135.652 58.7068C135.613 58.5176 135.588 58.3284 135.542 58.1357C135.186 56.5599 134.726 55.0095 134.164 53.4948C133.893 52.7201 133.593 51.949 133.293 51.1744C132.993 50.3997 132.661 49.6215 132.354 48.9075L135.977 47.1975Z" fill="#7F3E3B"/>
<path d="M134.407 66.9141L133.014 68.2706L136.052 69.6986C136.052 69.6986 136.788 68.4134 136.281 67.2496L134.407 66.9141Z" fill="#7F3E3B"/>
<path d="M131.893 70.2948L134.457 71.3443L136.052 69.6843L133.014 68.2706L131.893 70.2948Z" fill="#7F3E3B"/>
<path opacity="0.2" d="M79.8977 68.8311C84.9493 68.2654 89.7197 66.2145 93.6058 62.9378C97.4918 59.6611 100.319 55.3057 101.73 50.4223C103.141 45.5389 103.072 40.3468 101.533 35.5024C99.9931 30.6581 97.0517 26.379 93.0803 23.2062C89.109 20.0334 84.286 18.1093 79.2213 17.6774C74.1565 17.2454 69.0774 18.3248 64.6261 20.7792C60.1747 23.2336 56.5511 26.9527 54.2133 31.4664C51.8755 35.98 50.9285 41.0855 51.4921 46.1373C51.8664 49.4928 52.8982 52.7417 54.5285 55.6984C56.1587 58.6551 58.3556 61.2616 60.9934 63.3691C63.6313 65.4765 66.6585 67.0436 69.9022 67.9808C73.1459 68.918 76.5424 69.2069 79.8977 68.8311V68.8311Z" fill="#0ACF83"/>
<path opacity="0.1" d="M61.1951 23.0401L100.285 54.2624C100.453 53.9054 100.61 53.5484 100.764 53.1914C101.743 50.8605 102.369 48.3962 102.62 45.8803V45.8803L68.8561 18.9204C66.0852 19.8445 63.4938 21.238 61.1951 23.0401V23.0401Z" fill="black"/>
<path opacity="0.1" d="M52.1775 36.7234L88.926 66.0858C92.4178 64.2647 95.4444 61.6655 97.7722 58.489L57.6394 26.4171C55.053 29.3886 53.1843 32.9148 52.1775 36.7234V36.7234Z" fill="black"/>
<path d="M140.358 72.1547C140.311 71.505 140.098 70.8782 139.74 70.3341C139.48 69.9338 139.116 69.6117 138.687 69.4023L136.249 68.2064C134.628 67.4032 132.996 66.6214 131.365 65.8395C129.734 65.0577 128.091 64.2902 126.456 63.5155C124.821 62.7409 123.172 61.9876 121.519 61.2487C118.221 59.7541 114.901 58.2999 111.559 56.8863C109.888 56.1723 108.214 55.4869 106.526 54.8157C106.033 54.6216 105.632 54.2473 105.405 53.7687C105.177 53.2902 105.14 52.7431 105.301 52.2383C107.561 45.1121 107.047 37.3952 103.86 30.6323C100.673 23.8694 95.0502 18.5596 88.1158 15.7659C81.1813 12.9721 73.4476 12.9006 66.4627 15.5655C59.4778 18.2305 53.7572 23.4353 50.446 30.1381C47.1348 36.8409 46.4774 44.5469 48.6054 51.7137C50.7334 58.8805 55.4898 64.9791 61.9224 68.7886C68.3549 72.5982 75.9891 73.8377 83.2965 72.2588C90.6039 70.68 97.0454 66.3995 101.331 60.2741C101.635 59.8387 102.092 59.5349 102.611 59.4242C103.13 59.3135 103.672 59.4042 104.127 59.6779C105.688 60.6061 107.256 61.5188 108.832 62.416C111.98 64.2105 115.153 65.9597 118.349 67.6638C119.945 68.5277 121.562 69.3595 123.151 70.2055C124.739 71.0516 126.364 71.8762 127.981 72.7045C129.598 73.5327 131.194 74.343 132.832 75.1427L135.263 76.3493C135.69 76.5641 136.168 76.6579 136.645 76.6206C137.294 76.5747 137.919 76.3619 138.462 76.003C139.109 75.6057 139.63 75.0336 139.965 74.3526C140.301 73.6716 140.437 72.9096 140.358 72.1547V72.1547ZM66.6856 64.2581C62.5356 62.2103 59.0861 58.9778 56.7734 54.9695C54.4606 50.9611 53.3884 46.357 53.6924 41.7393C53.9965 37.1216 55.663 32.6977 58.4814 29.0272C61.2997 25.3567 65.1433 22.6044 69.5259 21.1184C73.9085 19.6324 78.6334 19.4794 83.103 20.6788C87.5726 21.8782 91.5861 24.3761 94.636 27.8566C97.6859 31.3371 99.6351 35.6439 100.237 40.2323C100.839 44.8207 100.067 49.4845 98.0186 53.6341C96.6589 56.3891 94.7699 58.8494 92.4594 60.8743C90.1489 62.8993 87.4621 64.4493 84.5525 65.4358C81.643 66.4224 78.5676 66.8261 75.5019 66.624C72.4363 66.422 69.4405 65.618 66.6856 64.2581V64.2581Z" fill="#0ACF83"/>
<path d="M122.515 36.163C122.515 36.3736 122.404 36.545 122.265 36.545C122.126 36.545 122.015 36.3736 122.015 36.163C122.015 35.9524 122.126 35.7775 122.265 35.7775C122.404 35.7775 122.515 35.9488 122.515 36.163Z" fill="#263238"/>
<path d="M122.422 36.5449C122.171 37.1916 121.833 37.8006 121.416 38.3549C121.56 38.4582 121.725 38.5286 121.9 38.5613C122.074 38.594 122.254 38.5881 122.426 38.5441L122.422 36.5449Z" fill="#630F0F"/>
<path d="M123.265 34.985C123.291 34.9843 123.316 34.9755 123.337 34.9599C123.357 34.9443 123.373 34.9226 123.38 34.8979C123.388 34.8732 123.388 34.8467 123.38 34.822C123.372 34.7973 123.357 34.7757 123.336 34.7601C123.179 34.6419 122.995 34.5628 122.801 34.5292C122.607 34.4957 122.407 34.5088 122.219 34.5673C122.202 34.5719 122.186 34.58 122.173 34.5911C122.159 34.6021 122.148 34.6158 122.14 34.6314C122.132 34.647 122.128 34.6641 122.127 34.6815C122.126 34.699 122.129 34.7164 122.135 34.7327C122.141 34.7491 122.151 34.7639 122.163 34.7762C122.176 34.7886 122.191 34.7982 122.207 34.8045C122.223 34.8108 122.241 34.8136 122.258 34.8127C122.276 34.8118 122.293 34.8073 122.308 34.7994V34.7994C122.458 34.7548 122.616 34.7461 122.77 34.774C122.924 34.8019 123.069 34.8657 123.194 34.96C123.214 34.9765 123.239 34.9853 123.265 34.985V34.985Z" fill="#263238"/>
<path d="M129.737 37.7552C129.359 39.6759 128.984 43.1922 130.326 44.4702C130.326 44.4702 129.801 46.4158 126.239 46.4158C122.312 46.4158 124.364 44.4702 124.364 44.4702C126.506 43.9597 126.449 42.3711 126.074 40.9003L129.737 37.7552Z" fill="#7F3E3B"/>
<path d="M131.015 43.267C131.311 43.3634 130.926 45.1269 130.926 45.1269C130.926 45.1269 130.437 46.3586 124.361 45.9302C123.893 45.8945 124.072 44.2023 124.518 43.956C125.957 43.1706 130.058 42.9529 131.015 43.267Z" fill="#263238"/>
<path d="M143.356 117.025C143.685 116.993 144.163 116.389 144.299 116.168C144.305 116.158 144.308 116.147 144.308 116.136C144.308 116.124 144.305 116.113 144.299 116.104C144.293 116.093 144.284 116.085 144.273 116.08C144.262 116.074 144.25 116.073 144.238 116.075C144.202 116.075 143.338 116.239 143.128 116.575C143.106 116.61 143.091 116.65 143.085 116.691C143.079 116.732 143.081 116.774 143.092 116.814C143.138 116.971 143.228 117.014 143.299 117.025H143.356ZM144.109 116.229C143.877 116.55 143.495 116.925 143.313 116.9C143.296 116.9 143.242 116.9 143.21 116.778C143.203 116.755 143.201 116.73 143.205 116.706C143.209 116.682 143.218 116.659 143.231 116.639C143.477 116.419 143.783 116.276 144.109 116.229Z" fill="#0ACF83"/>
<path d="M144.074 116.229C144.138 116.223 144.201 116.212 144.263 116.196C144.274 116.193 144.283 116.187 144.291 116.179C144.298 116.171 144.303 116.161 144.306 116.15C144.308 116.139 144.307 116.127 144.303 116.117C144.3 116.106 144.293 116.097 144.284 116.089C144.263 116.068 143.685 115.575 143.292 115.615C143.245 115.618 143.199 115.631 143.157 115.653C143.115 115.675 143.078 115.706 143.049 115.743C143.016 115.775 142.995 115.819 142.99 115.865C142.986 115.912 142.998 115.958 143.024 115.997C143.153 116.2 143.717 116.264 144.074 116.229ZM144.102 116.104C143.745 116.146 143.224 116.075 143.124 115.929C143.124 115.929 143.096 115.882 143.146 115.818C143.166 115.794 143.19 115.775 143.218 115.761C143.245 115.747 143.275 115.738 143.306 115.736V115.736C143.602 115.777 143.879 115.905 144.102 116.104V116.104Z" fill="#0ACF83"/>
<path d="M118.813 126.414C119.084 126.413 119.354 126.389 119.62 126.342C119.632 126.339 119.643 126.333 119.652 126.324C119.66 126.315 119.667 126.304 119.67 126.292C119.672 126.279 119.67 126.266 119.665 126.255C119.659 126.243 119.649 126.234 119.638 126.228C119.599 126.203 118.685 125.682 118.246 125.8C118.163 125.82 118.093 125.873 118.049 125.946C118.021 125.986 118.006 126.033 118.006 126.082C118.006 126.13 118.021 126.177 118.049 126.217C118.164 126.374 118.478 126.414 118.813 126.414ZM119.42 126.249C118.931 126.317 118.267 126.314 118.146 126.146C118.128 126.124 118.114 126.085 118.146 126.007C118.159 125.985 118.176 125.966 118.197 125.951C118.218 125.936 118.242 125.926 118.267 125.921C118.549 125.846 119.099 126.085 119.42 126.249V126.249Z" fill="#0ACF83"/>
<path d="M119.591 126.342C119.604 126.346 119.618 126.346 119.631 126.342C119.639 126.335 119.645 126.326 119.65 126.316C119.654 126.307 119.656 126.296 119.656 126.285C119.656 126.256 119.581 125.55 119.249 125.275C119.199 125.234 119.142 125.203 119.081 125.185C119.02 125.166 118.955 125.16 118.892 125.168C118.72 125.185 118.674 125.271 118.66 125.343C118.613 125.639 119.242 126.206 119.556 126.349L119.591 126.342ZM118.952 125.271C119.032 125.273 119.109 125.302 119.17 125.353C119.368 125.58 119.493 125.861 119.527 126.16C119.202 125.967 118.777 125.521 118.813 125.343C118.813 125.343 118.813 125.285 118.935 125.275L118.952 125.271Z" fill="#0ACF83"/>
<path d="M122.49 126.281H119.87L119.606 120.205H122.23L122.49 126.281Z" fill="#7F3E3B"/>
<path d="M146.591 114.247L144.545 115.886L139.34 112.273L141.389 110.635L146.591 114.247Z" fill="#7F3E3B"/>
<path d="M144.17 115.782L146.262 113.708C146.3 113.672 146.348 113.65 146.4 113.644C146.452 113.639 146.504 113.652 146.548 113.68L148.558 114.972C148.606 115.003 148.647 115.046 148.677 115.095C148.707 115.145 148.726 115.201 148.731 115.259C148.736 115.317 148.728 115.375 148.707 115.429C148.686 115.483 148.654 115.532 148.611 115.572C147.869 116.286 147.472 116.593 146.551 117.503C145.987 118.067 144.606 119.745 143.824 120.52C143.042 121.294 142.171 120.623 142.425 120.234C143.549 118.499 143.931 117.067 143.981 116.196C143.992 116.04 144.059 115.893 144.17 115.782V115.782Z" fill="#263238"/>
<path d="M119.884 125.978H122.74C122.792 125.978 122.842 125.995 122.883 126.028C122.923 126.06 122.951 126.106 122.961 126.157L123.479 128.488C123.492 128.544 123.492 128.602 123.479 128.658C123.466 128.714 123.441 128.766 123.405 128.811C123.369 128.856 123.323 128.892 123.271 128.916C123.219 128.941 123.162 128.953 123.104 128.952C122.069 128.952 120.577 128.877 119.277 128.877C117.76 128.877 116.45 128.959 114.669 128.959C113.598 128.959 113.294 127.87 113.744 127.77C115.797 127.324 117.471 127.274 119.242 126.182C119.433 126.055 119.655 125.985 119.884 125.978V125.978Z" fill="#263238"/>
<path d="M135.495 45.2556C137.769 46.3265 138.708 53.6662 138.708 53.6662L133.478 55.7189C132.667 53.7316 132.009 51.6848 131.511 49.5965C130.779 46.2837 133.157 44.1417 135.495 45.2556Z" fill="#0ACF83"/>
<path opacity="0.3" d="M135.495 45.2556C137.769 46.3265 138.708 53.6662 138.708 53.6662L133.478 55.7189C132.667 53.7316 132.009 51.6848 131.511 49.5965C130.779 46.2837 133.157 44.1417 135.495 45.2556Z" fill="black"/>
<path opacity="0.2" d="M132.107 47.4082C131.929 47.3217 131.743 47.2535 131.551 47.2047C131.342 47.9874 131.335 48.8102 131.529 49.5965C132.025 51.6849 132.681 53.7319 133.493 55.7189L135.217 55.0442C134.899 53.1272 133.925 48.2793 132.107 47.4082Z" fill="black"/>
<path d="M120.33 45.1984C120.33 45.1984 117.539 48.3506 120.173 67.8672H134.203C134.299 65.7253 132.946 55.2084 135.024 45.0627C133.472 44.7643 131.903 44.5664 130.326 44.4701C128.34 44.3558 126.35 44.3558 124.364 44.4701C123.003 44.6073 121.654 44.8508 120.33 45.1984Z" fill="#0ACF83"/>
<path opacity="0.3" d="M120.33 45.1984C120.33 45.1984 117.539 48.3506 120.173 67.8672H134.203C134.299 65.7253 132.946 55.2084 135.024 45.0627C133.472 44.7643 131.903 44.5664 130.326 44.4701C128.34 44.3558 126.35 44.3558 124.364 44.4701C123.003 44.6073 121.654 44.8508 120.33 45.1984Z" fill="black"/>
<path opacity="0.2" d="M123.161 49.3824C122.526 47.476 120.998 46.8656 119.441 47.9972C119.127 49.8464 118.906 52.8273 119.159 57.5538L121.898 57.5288C121.898 57.5288 124.1 52.2204 123.161 49.3824Z" fill="black"/>
<path d="M122.647 48.6005C122.533 49.5572 122.376 50.4247 122.201 51.3279C122.026 52.231 121.823 53.1128 121.591 54.0017C121.132 55.8185 120.509 57.5894 119.727 59.2923C119.524 59.7314 119.288 60.1634 119.038 60.5953C118.91 60.8131 118.781 61.0308 118.635 61.245C118.445 61.5427 118.221 61.8171 117.967 62.0625C117.475 62.5193 116.89 62.8661 116.254 63.08C115.737 63.2611 115.202 63.3868 114.658 63.4548C113.688 63.5751 112.707 63.5871 111.734 63.4905C111.258 63.4524 110.794 63.3917 110.342 63.3084C109.878 63.2263 109.439 63.1406 108.96 63.0157L109.192 61.0594C110.822 60.991 112.439 60.7517 114.019 60.3454C114.34 60.2503 114.652 60.1261 114.951 59.9741C115.147 59.8843 115.318 59.7483 115.45 59.5779C115.422 59.6029 115.682 59.1709 115.836 58.8639C115.989 58.5569 116.161 58.1499 116.307 57.7929C116.607 57.0575 116.864 56.2793 117.1 55.4832C117.335 54.6871 117.542 53.8768 117.735 53.0557C117.928 52.2346 118.092 51.4064 118.271 50.5568C118.449 49.7071 118.578 48.8646 118.706 48.0757L122.647 48.6005Z" fill="#7F3E3B"/>
<path d="M123.836 47.1226C124.575 49.518 121.576 56.6578 121.576 56.6578L115.261 55.0692C115.648 52.8124 116.298 50.609 117.2 48.5042C119.235 44.0489 122.947 44.2346 123.836 47.1226Z" fill="#0ACF83"/>
<path opacity="0.3" d="M123.836 47.1226C124.575 49.518 121.576 56.6578 121.576 56.6578L115.261 55.0692C115.648 52.8124 116.298 50.609 117.2 48.5042C119.235 44.0489 122.947 44.2346 123.836 47.1226Z" fill="black"/>
<path d="M109.282 61.0702L106.311 60.9952L107.739 64.0832C107.739 64.0832 108.946 64.2438 109.938 62.6124L110.984 61.3665L109.781 61.1238C109.617 61.0916 109.449 61.0737 109.282 61.0702Z" fill="#7F3E3B"/>
<path d="M104.437 61.57L106.14 64.1296L107.743 64.0832L106.311 60.9952L104.437 61.57Z" fill="#7F3E3B"/>
<path opacity="0.2" d="M119.609 120.209L119.741 123.34H122.365L122.23 120.209H119.609Z" fill="black"/>
<path opacity="0.2" d="M141.389 110.635L139.34 112.273L142.025 114.137L144.074 112.498L141.389 110.635Z" fill="black"/>
<path d="M129.587 35.6989C129.43 38.2978 129.473 39.8257 128.159 41.1609C126.189 43.1672 122.979 41.982 122.358 39.3759C121.798 37.0412 122.151 33.1857 124.693 32.1469C125.253 31.9151 125.864 31.8308 126.466 31.902C127.069 31.9733 127.643 32.1978 128.133 32.5541C128.624 32.9103 129.016 33.3865 129.27 33.937C129.525 34.4876 129.634 35.0942 129.587 35.6989V35.6989Z" fill="#7F3E3B"/>
<path d="M131.686 33.2857C131.686 33.2857 133.053 33.6927 132.625 35.2528C131.979 37.6232 130.458 40.3506 128.495 40.5219C126.049 40.7397 124.946 38.2158 124.625 35.6062C123.161 34.603 122.076 33.6642 122.426 32.6217C122.961 31.0153 124.903 29.6302 127.995 29.9872C131.086 30.3442 132.625 32.3433 131.686 33.2857Z" fill="#263238"/>
<path d="M126.114 36.1416C126.066 36.7861 125.808 37.3971 125.378 37.8801C124.807 38.5084 124.207 38.1157 124.107 37.3518C124.018 36.6592 124.204 35.499 124.903 35.1527C125.603 34.8064 126.16 35.3633 126.114 36.1416Z" fill="#7F3E3B"/>
<path d="M125.15 67.8672C125.15 67.8672 124.265 85.5453 125.989 93.0349C128.72 104.894 140.725 114.397 140.725 114.397L144.581 111.309C144.581 111.309 134.703 103.959 133.814 94.0845C133.018 85.2169 134.196 75.032 134.196 67.8672H125.15Z" fill="#0ACF83"/>
<path opacity="0.2" d="M125.15 67.8672C125.15 67.8672 124.265 85.5453 125.989 93.0349C128.72 104.894 140.725 114.397 140.725 114.397L144.581 111.309C144.581 111.309 134.703 103.959 133.814 94.0845C133.018 85.2169 134.196 75.032 134.196 67.8672H125.15Z" fill="black"/>
<path opacity="0.2" d="M126.467 73.1043C126.11 72.4154 125.414 74.468 124.928 77.1026C124.928 80.7368 124.993 84.8707 125.31 88.3728C127.734 83.8926 127.22 74.5323 126.467 73.1043Z" fill="black"/>
<path d="M138.976 113.637L140.44 114.772L144.891 111.163L143.556 109.953L138.976 113.637Z" fill="#2C6BDB"/>
<path opacity="0.4" d="M138.976 113.637L140.44 114.772L144.891 111.163L143.556 109.953L138.976 113.637Z" fill="#FAFAFA"/>
<path d="M120.173 67.8672C120.173 67.8672 116.225 84.61 115.947 92.6066C115.636 101.578 118.763 122.733 118.763 122.733H123.208C123.208 122.733 123.754 101.413 123.954 93.242C124.168 84.3351 129.394 67.8672 129.394 67.8672H120.173Z" fill="#0ACF83"/>
<path opacity="0.2" d="M120.173 67.8672C120.173 67.8672 116.225 84.61 115.947 92.6066C115.636 101.578 118.763 122.733 118.763 122.733H123.208C123.208 122.733 123.754 101.413 123.954 93.242C124.168 84.3351 129.394 67.8672 129.394 67.8672H120.173Z" fill="black"/>
<path d="M117.91 120.962C117.889 120.962 118.16 122.808 118.16 122.808H123.565L123.711 121.162L117.91 120.962Z" fill="#2C6BDB"/>
<path opacity="0.4" d="M117.91 120.962C117.889 120.962 118.16 122.808 118.16 122.808H123.565L123.711 121.162L117.91 120.962Z" fill="#FAFAFA"/>
</svg>
