<svg width="29" height="27" viewBox="0 0 29 27" fill="none" xmlns="http://www.w3.org/2000/svg">
<path d="M5.96252 24V23.625C5.96252 23.4261 5.88351 23.2353 5.74285 23.0947C5.6022 22.954 5.41144 22.875 5.21252 22.875H3.90002C3.70111 22.875 3.51035 22.954 3.36969 23.0947C3.22904 23.2353 3.15002 23.4261 3.15002 23.625V24" stroke="#0ACF83" stroke-width="0.7" stroke-linecap="round" stroke-linejoin="round"/>
<path d="M4.55634 21.75C4.97055 21.75 5.30634 21.4142 5.30634 21C5.30634 20.5858 4.97055 20.25 4.55634 20.25C4.14212 20.25 3.80634 20.5858 3.80634 21C3.80634 21.4142 4.14212 21.75 4.55634 21.75Z" stroke="#0ACF83" stroke-width="0.7" stroke-linecap="round" stroke-linejoin="round"/>
<path d="M25.5374 24V23.625C25.5374 23.4261 25.4584 23.2353 25.3177 23.0947C25.1771 22.954 24.9863 22.875 24.7874 22.875H23.4749C23.276 22.875 23.0852 22.954 22.9446 23.0947C22.8039 23.2353 22.7249 23.4261 22.7249 23.625V24" stroke="#0ACF83" stroke-width="0.7" stroke-linecap="round" stroke-linejoin="round"/>
<path d="M24.1312 21.75C24.5454 21.75 24.8812 21.4142 24.8812 21C24.8812 20.5858 24.5454 20.25 24.1312 20.25C23.717 20.25 23.3812 20.5858 23.3812 21C23.3812 21.4142 23.717 21.75 24.1312 21.75Z" stroke="#0ACF83" stroke-width="0.7" stroke-linecap="round" stroke-linejoin="round"/>
<path d="M15.75 24V23.625C15.75 23.4261 15.671 23.2353 15.5303 23.0947C15.3897 22.954 15.1989 22.875 15 22.875H13.6875C13.4886 22.875 13.2978 22.954 13.1572 23.0947C13.0165 23.2353 12.9375 23.4261 12.9375 23.625V24" stroke="#0ACF83" stroke-width="0.7" stroke-linecap="round" stroke-linejoin="round"/>
<path d="M14.3438 21.75C14.758 21.75 15.0938 21.4142 15.0938 21C15.0938 20.5858 14.758 20.25 14.3438 20.25C13.9296 20.25 13.5938 20.5858 13.5938 21C13.5938 21.4142 13.9296 21.75 14.3438 21.75Z" stroke="#0ACF83" stroke-width="0.7" stroke-linecap="round" stroke-linejoin="round"/>
<circle cx="14.3574" cy="4.5" r="4.1" stroke="#0ACF83" stroke-width="0.8"/>
<circle cx="4.5" cy="22.5" r="4.1" stroke="#0ACF83" stroke-width="0.8"/>
<circle cx="24.2144" cy="22.5" r="4.1" stroke="#0ACF83" stroke-width="0.8"/>
<circle cx="14.3574" cy="22.5" r="4.1" stroke="#0ACF83" stroke-width="0.8"/>
<path d="M12.2143 10.2857V13.9286H4.71429V16.9286M14.1429 16.9286V11.1429M16.2857 10.2857V13.9286H23.7857V16.9286M12.8572 4.5L14.1429 5.57143L16.2857 3" stroke="#0ACF83" stroke-width="0.8"/>
</svg>
