<svg width="572" height="134" viewBox="0 0 572 134" fill="none" xmlns="http://www.w3.org/2000/svg">
<path d="M14.28 36.8H27.88V120.168H79.424V132H14.28V36.8ZM164.118 120.168V132H95.03V36.8H162.214V48.632H108.63V77.872H156.366V89.432H108.63V120.168H164.118ZM267.499 36.8L225.747 132H212.283L170.395 36.8H185.083L219.355 115L253.899 36.8H267.499ZM364.32 36.8L322.568 132H309.104L267.216 36.8H281.904L316.176 115L350.72 36.8H364.32ZM417.892 133.088C405.199 133.088 395.316 129.461 388.244 122.208C381.172 114.955 377.636 104.528 377.636 90.928V36.8H391.236V90.384C391.236 110.784 400.167 120.984 418.028 120.984C426.732 120.984 433.396 118.491 438.02 113.504C442.644 108.427 444.956 100.72 444.956 90.384V36.8H458.148V90.928C458.148 104.619 454.612 115.091 447.54 122.344C440.468 129.507 430.585 133.088 417.892 133.088ZM523.158 36.8C535.489 36.8 545.19 39.7467 552.262 45.64C559.334 51.5333 562.87 59.648 562.87 69.984C562.87 80.32 559.334 88.4347 552.262 94.328C545.19 100.221 535.489 103.168 523.158 103.168H499.63V132H486.03V36.8H523.158ZM522.75 91.336C531.363 91.336 537.937 89.5227 542.47 85.896C547.003 82.1787 549.27 76.8747 549.27 69.984C549.27 63.0933 547.003 57.8347 542.47 54.208C537.937 50.4907 531.363 48.632 522.75 48.632H499.63V91.336H522.75Z" fill="#0ACF83"/>
<path d="M445.5 38V23.5H439.5L451.5 9L464.5 23.5H457.5V38H451.5H445.5Z" fill="#0ACF83" stroke="#0ACF83"/>
</svg>
