<svg width="80" height="91" viewBox="0 0 80 91" fill="none" xmlns="http://www.w3.org/2000/svg">
<path d="M45.9255 19.0172L51.8335 19.9228C51.8335 19.9228 52.597 14.9652 57.7611 15.6701C58.7638 15.7797 59.707 16.2008 60.4578 16.8744C61.2087 17.5479 61.7295 18.4399 61.947 19.4248C62.1422 20.2464 62.1397 21.1026 61.9398 21.9231C61.7399 22.7436 61.3482 23.505 60.7969 24.1447C59.536 25.6421 57.0805 26.8109 53.2388 25.5218L51.1977 38.8434L57.0342 39.741L58.2386 31.9367C58.2386 31.9367 66.754 31.0855 68.1404 22.0503C69.4714 13.4034 62.0336 10.2133 58.7191 9.70359C56.1502 9.28917 47.413 8.5769 45.9255 19.0172Z" fill="#F2F2F2"/>
<path d="M56.6653 42.4721L50.7335 41.5608L49.8829 47.0976L55.8147 48.0089L56.6653 42.4721Z" fill="#F2F2F2"/>
<path d="M15.7656 17.3896L18.8421 15.8625C18.6661 15.5129 18.5622 15.1315 18.5365 14.7409C18.5107 14.3504 18.5638 13.9586 18.6924 13.5889C18.821 13.2193 19.0226 12.8792 19.2852 12.589C19.5478 12.2987 19.8661 12.0642 20.2211 11.8993C20.7267 11.621 21.3069 11.5084 21.8799 11.5774C22.4529 11.6464 22.9897 11.8935 23.4148 12.2839C23.7814 12.6068 24.0659 13.0122 24.2449 13.4667C24.424 13.9212 24.4923 14.4117 24.4443 14.8978C24.3467 16.0152 23.5923 17.3713 21.3388 18.034L24.7876 24.9695L27.8315 23.4555L25.8104 19.3974C26.8722 18.4085 27.5802 17.0985 27.8257 15.6684C28.0712 14.2383 27.8407 12.7672 27.1695 11.4808C24.9492 6.98276 20.3768 7.94893 18.6534 8.83023C17.3495 9.43898 13.0107 11.9945 15.7656 17.3896Z" fill="#F2F2F2"/>
<path d="M28.57 24.856L25.4857 26.3909L26.9193 29.2716L30.0036 27.7368L28.57 24.856Z" fill="#F2F2F2"/>
<path d="M25.5491 49.7147C25.4462 49.7256 25.3442 49.7442 25.2441 49.7703L24.3357 49.9358C23.8417 50.0345 23.3563 50.1722 22.8839 50.3474C22.6079 50.4467 22.2942 50.5319 21.9812 50.659L20.9774 51.108C16.9654 52.9798 13.8159 56.308 12.1681 60.4171C11.0004 63.2357 10.5947 66.3119 10.9918 69.3369C11.4161 72.8225 12.8745 76.1012 15.1792 78.7503C17.7203 81.6915 21.1491 83.7266 24.9482 84.5483C26.9474 84.981 29.0074 85.0562 31.0328 84.7704C33.1195 84.5238 35.1417 83.8893 36.9952 82.8996L37.1616 82.8133L37.0192 82.8392L47.8941 84.5207L48.3335 84.5877L48.1282 84.1909C46.677 81.4157 45.2703 78.7305 43.9197 76.1611L43.9161 76.3719C45.3543 74.0083 46.2213 71.3418 46.4484 68.5843C46.6755 65.8269 46.2563 63.0545 45.2241 60.4874C44.3654 58.3121 43.078 56.3316 41.4386 54.6637C40.0321 53.2412 38.3973 52.0642 36.602 51.1817C35.8339 50.8084 35.0427 50.4847 34.2333 50.2126C33.511 49.9853 32.7758 49.8012 32.0317 49.6612C31.4226 49.541 30.8065 49.4591 30.1871 49.416C29.6426 49.3625 29.0948 49.3499 28.5484 49.3784C28.0548 49.3983 27.6222 49.4071 27.2499 49.4399L26.3213 49.6091L25.7519 49.7128C25.6852 49.7173 25.6192 49.7293 25.5553 49.7486C25.6224 49.748 25.6889 49.7359 25.7519 49.7128L26.3231 49.6578L27.2574 49.5576C27.6308 49.5316 28.0659 49.5363 28.5472 49.5257C29.0898 49.5137 29.6326 49.5388 30.1718 49.6009C30.8178 49.6501 31.4597 49.7438 32.0928 49.8812C32.8375 50.0281 33.5733 50.2167 34.2968 50.4461C35.0904 50.7229 35.8657 51.0495 36.6181 51.4239C38.3666 52.3157 39.9572 53.488 41.3265 54.8943C42.9216 56.5409 44.1719 58.4894 45.0041 60.6255C45.9957 63.1435 46.3879 65.8577 46.1498 68.5534C45.9116 71.2491 45.0496 73.8524 43.6319 76.1575L43.5666 76.2605L43.5876 76.3757C44.9312 78.9323 46.3281 81.6147 47.7782 84.4227L48.0123 84.0929L37.1429 82.4034L37.0751 82.4158L37.0006 82.4294L36.849 82.52C35.0355 83.4847 33.0583 84.1038 31.0185 84.3458C29.0454 84.6218 27.0392 84.5512 25.0904 84.1372C21.3845 83.3373 18.0368 81.3602 15.5471 78.5011C13.4476 76.0768 12.0525 73.1234 11.5135 69.9619C10.9746 66.8004 11.3122 63.5516 12.4899 60.5686C14.0933 56.515 17.1562 53.2085 21.0755 51.3002L22.0564 50.8414C22.367 50.7007 22.6726 50.61 22.9555 50.5095C23.4166 50.3194 23.8925 50.1671 24.3783 50.0541L25.2675 49.8221C25.3642 49.7942 25.4584 49.7583 25.5491 49.7147V49.7147Z" fill="#F2F2F2"/>
<path d="M35.0441 65.8091C34.836 64.7516 34.3476 63.7695 33.6301 62.9654C32.9125 62.1613 31.9921 61.5647 30.9651 61.2381C29.938 60.9115 28.8421 60.8668 27.7919 61.1087C26.7417 61.3506 25.7757 61.8703 24.9951 62.6133C24.2144 63.3563 23.6477 64.2954 23.3542 65.3324C23.0608 66.3694 23.0513 67.4662 23.3268 68.5081C23.6023 69.55 24.1527 70.4987 24.9203 71.2551C25.688 72.0115 26.6449 72.5478 27.6907 72.8078C27.8142 73.4857 27.9625 74.2991 27.9625 74.2991L33.1345 73.2797C33.1345 73.2797 32.9814 72.4392 32.8455 71.6935C33.7186 71.0105 34.386 70.0995 34.7739 69.0611C35.1619 68.0227 35.2554 66.8973 35.0441 65.8091V65.8091Z" fill="#F2F2F2"/>
<path d="M35.0438 65.809C35.0922 65.9534 35.1197 66.1041 35.1253 66.2564C35.1904 66.6936 35.2077 67.1366 35.1769 67.5776C35.1304 68.2796 34.9593 68.9677 34.6717 69.6097C34.2796 70.4613 33.6976 71.2119 32.9704 71.8037L33.0172 71.6761C33.1086 72.1777 33.2049 72.7064 33.3062 73.2623L33.3309 73.3979L33.1885 73.4238L28.0294 74.4758L27.86 74.5067L27.8328 74.3576C27.7463 73.8831 27.6549 73.3815 27.5611 72.8663L27.6832 72.9981C26.7886 72.7759 25.9547 72.3571 25.2424 71.7721C24.53 71.1871 23.9571 70.4506 23.5652 69.6163C22.9606 68.3258 22.8233 66.8654 23.1766 65.4849C23.4964 64.2133 24.2076 63.0744 25.2097 62.229C25.6878 61.8496 26.2151 61.5367 26.7772 61.299C27.3098 61.0867 27.8679 60.945 28.4373 60.8775C29.461 60.7651 30.4965 60.9111 31.4492 61.3022C32.8316 61.8717 33.952 62.9361 34.5915 64.2875C34.8328 64.7707 34.9871 65.2926 35.0475 65.8293C34.8893 65.3241 34.6964 64.8303 34.4701 64.3517C33.9133 63.2734 33.0402 62.391 31.9678 61.8229C30.8954 61.2547 29.675 61.0278 28.4701 61.1727C27.9286 61.2435 27.3987 61.3848 26.8938 61.5929C26.3668 61.8239 25.8727 62.1235 25.4243 62.484C24.4701 63.2865 23.7948 64.3707 23.4953 65.5809C23.1644 66.8789 23.2956 68.2516 23.8665 69.4633C24.2344 70.249 24.7721 70.9433 25.4409 71.496C26.1096 72.0488 26.8927 72.4463 27.7336 72.6598L27.8439 72.6887L27.8636 72.7972C27.9575 73.3123 28.0501 73.8207 28.1354 74.2884L27.9363 74.1566L33.112 73.1576L32.9944 73.3191C32.8943 72.77 32.7968 72.2345 32.7066 71.7397L32.6918 71.6583L32.7596 71.646C34.0103 70.6533 34.8189 69.2074 35.01 67.6221C35.079 67.0202 35.0903 66.413 35.0438 65.809V65.809Z" fill="#F2F2F2"/>
<path d="M31.2772 73.6181C31.2713 73.5935 31.2668 73.5686 31.2636 73.5435L31.2253 73.3334C31.1907 73.1436 31.1876 72.857 31.1708 72.4959C31.154 72.1348 31.1415 71.6818 31.153 71.1685C31.1654 70.5801 31.237 69.9945 31.3669 69.4206C31.4346 69.0844 31.5367 68.756 31.6716 68.4406C31.7456 68.268 31.8593 68.1152 32.0036 67.9949C32.0822 67.9339 32.1744 67.8928 32.2724 67.8749C32.3703 67.8571 32.4711 67.8631 32.5662 67.8924C32.6161 67.9077 32.6623 67.9329 32.7022 67.9666C32.742 68.0003 32.7746 68.0417 32.798 68.0883C32.8561 68.1786 32.8761 68.2883 32.8536 68.3933C32.7928 68.5947 32.6593 68.7664 32.479 68.8748C32.2871 68.9839 32.0752 69.0533 31.8559 69.0789C31.6366 69.1045 31.4145 69.0857 31.2026 69.0237C30.9907 68.9617 30.7934 68.8577 30.6225 68.7179C30.4517 68.5781 30.3106 68.4054 30.2078 68.21C30.0882 68.0078 30.0289 67.7756 30.0368 67.5408C30.0401 67.4155 30.0871 67.2953 30.1697 67.2009C30.2523 67.1066 30.3652 67.0441 30.489 67.0242C30.554 67.0166 30.6198 67.0263 30.6799 67.0522C30.7399 67.0781 30.7921 67.1195 30.8311 67.172C30.9127 67.2697 30.9553 67.3942 30.9508 67.5214C30.9258 67.7711 30.8214 68.0062 30.6528 68.192C30.4977 68.3861 30.3039 68.5458 30.0836 68.6607C29.8634 68.7756 29.6215 68.8432 29.3736 68.8593C29.1209 68.8704 28.8692 68.8194 28.6407 68.7109C28.4122 68.6024 28.2137 68.4396 28.0625 68.2367C27.9853 68.1373 27.9291 68.0232 27.8973 67.9014C27.8655 67.7796 27.8587 67.6526 27.8774 67.5281C27.9038 67.4009 27.979 67.2891 28.0868 67.2168C28.14 67.1812 28.2 67.157 28.2629 67.1455C28.3259 67.1341 28.3905 67.1356 28.4529 67.1501C28.5711 67.1892 28.6749 67.263 28.7506 67.362C28.8269 67.4557 28.8805 67.5658 28.9073 67.6836C28.9978 68.015 28.9905 68.3655 28.886 68.6928C28.7816 69.0201 28.5846 69.3101 28.3188 69.5277C27.9844 69.8004 27.5646 69.9463 27.1332 69.9398C26.9211 69.948 26.7124 69.8849 26.5403 69.7607C26.4576 69.6961 26.3985 69.606 26.3724 69.5043C26.3463 69.4027 26.3545 69.2952 26.3959 69.1987C26.4513 69.1118 26.5372 69.0487 26.6368 69.0218C26.7321 68.992 26.834 68.9905 26.9301 69.0174C27.1083 69.0787 27.2621 69.1955 27.369 69.3506C27.583 69.6408 27.7618 69.9304 27.945 70.2052C28.6479 71.2957 29.1795 72.2144 29.5402 72.849C29.716 73.1602 29.8523 73.4085 29.9466 73.5804L30.0447 73.7726L30.0583 73.8472L30.0459 73.7794L29.9343 73.5896C29.84 73.4177 29.6969 73.1707 29.5211 72.8595C29.1536 72.2261 28.6177 71.3222 27.908 70.2329C27.7248 69.9581 27.5392 69.6698 27.3333 69.3851C27.2328 69.2396 27.0876 69.1308 26.9197 69.0753C26.8363 69.0476 26.7462 69.0477 26.6629 69.0755C26.5796 69.1033 26.5075 69.1574 26.4575 69.2295C26.4236 69.314 26.418 69.4072 26.4416 69.4951C26.4652 69.583 26.5167 69.6608 26.5883 69.717C26.752 69.8261 26.9458 69.8814 27.1424 69.8751C27.5568 69.8798 27.9599 69.7394 28.2818 69.4784C28.6165 69.1965 28.8339 68.7997 28.8915 68.3658C28.9248 68.1345 28.9082 67.8987 28.8426 67.6744C28.8171 67.5774 28.7696 67.4876 28.7035 67.4121C28.6375 67.3367 28.5549 67.2775 28.4621 67.2394C28.4104 67.2248 28.356 67.2221 28.3032 67.2318C28.2503 67.2414 28.2003 67.263 28.1571 67.295C28.1105 67.3236 28.0706 67.3619 28.0402 67.4073C28.0098 67.4528 27.9896 67.5042 27.981 67.5582C27.9597 67.6758 27.9646 67.7966 27.9953 67.9121C28.026 68.0275 28.0818 68.1348 28.1587 68.2262C28.3017 68.4197 28.4897 68.5754 28.7065 68.6799C28.9232 68.7844 29.1621 68.8346 29.4026 68.826C29.6433 68.8119 29.8783 68.7471 30.0922 68.6357C30.3061 68.5243 30.494 68.3689 30.6435 68.1797C30.8029 68.0067 30.9028 67.7873 30.9286 67.5534C30.9306 67.4433 30.8937 67.3359 30.8243 67.2503C30.7922 67.2069 30.7493 67.1727 30.6999 67.151C30.6505 67.1293 30.5963 67.1208 30.5427 67.1265C30.4356 67.1423 30.3382 67.1975 30.2697 67.2813C30.2022 67.3652 30.1622 67.4679 30.1552 67.5753C30.1457 67.8098 30.2027 68.0422 30.3194 68.2457C30.4224 68.4361 30.5626 68.6038 30.7316 68.739C30.9006 68.8742 31.095 68.9742 31.3032 69.033C31.7044 69.1422 32.1325 69.0894 32.4951 68.8859C32.6622 68.7855 32.7877 68.6284 32.8486 68.4433C32.8731 68.3566 32.8634 68.2639 32.8215 68.1842C32.7796 68.1046 32.7088 68.044 32.6235 68.015C32.5375 67.9895 32.4466 67.9845 32.3583 68.0006C32.27 68.0167 32.1867 68.0534 32.1152 68.1077C31.9765 68.2197 31.8681 68.3646 31.7998 68.5293C31.6671 68.841 31.5642 69.1646 31.4926 69.4957C31.3601 70.0653 31.2854 70.6467 31.2695 71.2313C31.2512 71.7459 31.2625 72.1921 31.2725 72.5544C31.2825 72.9168 31.306 73.1997 31.3135 73.3944C31.3209 73.5891 31.3431 73.5571 31.353 73.6113C31.328 73.6157 31.3026 73.618 31.2772 73.6181V73.6181Z" fill="#F2F2F2"/>
<path d="M32.9438 74.3086L28.5094 75.1866C28.4658 75.1964 28.4208 75.1973 28.3769 75.1893C28.333 75.1812 28.2912 75.1644 28.254 75.1397C28.2168 75.1151 28.185 75.0832 28.1604 75.046C28.1359 75.0087 28.1191 74.9669 28.1111 74.923V74.923C28.1013 74.8795 28.1004 74.8344 28.1085 74.7905C28.1165 74.7466 28.1334 74.7048 28.158 74.6676C28.1826 74.6304 28.2145 74.5986 28.2518 74.574C28.289 74.5495 28.3309 74.5327 28.3748 74.5248L32.816 73.6455C32.8594 73.6367 32.9042 73.6365 32.9477 73.6449C32.9913 73.6534 33.0327 73.6704 33.0697 73.6948C33.1067 73.7193 33.1385 73.7509 33.1632 73.7876C33.188 73.8244 33.2053 73.8657 33.2142 73.9091V73.9091C33.2231 73.9532 33.2232 73.9985 33.2144 74.0426C33.2056 74.0866 33.1881 74.1285 33.1629 74.1657C33.1377 74.2029 33.1054 74.2347 33.0677 74.2592C33.0301 74.2838 32.988 74.3006 32.9438 74.3086V74.3086Z" fill="#F2F2F2"/>
<path d="M33.0035 74.5997L28.5623 75.4789C28.5188 75.4878 28.4775 75.5051 28.4408 75.5299C28.404 75.5547 28.3725 75.5865 28.348 75.6234C28.3235 75.6604 28.3065 75.7019 28.2981 75.7454C28.2896 75.7889 28.2898 75.8337 28.2987 75.8772C28.3166 75.9655 28.3685 76.0434 28.4432 76.0939C28.5179 76.1445 28.6094 76.1637 28.6981 76.1476L29.1862 76.0586L30.0863 77.1553C30.136 77.2184 30.2023 77.2662 30.2779 77.2933C30.3534 77.3204 30.4351 77.3257 30.5135 77.3086L32.1065 77.0183C32.1846 77.0016 32.2566 76.9636 32.3145 76.9086C32.3725 76.8535 32.4141 76.7836 32.4348 76.7064L32.8189 75.3547L33.1578 75.293C33.2477 75.2766 33.3274 75.2252 33.3794 75.15C33.4314 75.0749 33.4514 74.9822 33.435 74.8923C33.4186 74.8024 33.3672 74.7227 33.292 74.6707C33.2169 74.6187 33.1242 74.5987 33.0343 74.6151L33.0035 74.5997Z" fill="#F2F2F2"/>
<g opacity="0.2">
<path opacity="0.2" d="M24.6085 63.9634C24.8915 63.5703 25.2387 63.2277 25.6354 62.9498C25.8973 62.7587 26.1859 62.607 26.4919 62.4996C26.7156 62.4589 26.8444 62.4354 26.8653 62.4736C26.8863 62.5118 26.4957 62.8281 25.9721 63.3367C25.293 63.9978 24.808 64.8322 24.5697 65.7494C24.3632 66.6702 24.4074 67.6296 24.6977 68.5275C24.9247 69.2355 25.1812 69.644 25.095 69.7088C25.0087 69.7735 24.936 69.6817 24.7738 69.5222C24.5503 69.2884 24.3627 69.0229 24.217 68.7341C23.999 68.2987 23.8502 67.832 23.7759 67.3508C23.688 66.7563 23.713 66.1505 23.8498 65.5654" fill="black"/>
</g>
<g opacity="0.2">
<path opacity="0.2" d="M28.3316 62.4512C27.959 62.5191 27.6369 62.4798 27.5333 62.2956C27.4298 62.1115 27.5425 62.077 27.6632 61.971C27.815 61.8443 27.9978 61.7603 28.1928 61.7275C28.3867 61.6821 28.5895 61.6912 28.7786 61.7538C28.9289 61.8104 29.0164 61.9064 29.0201 62.0037" fill="black"/>
</g>
<path d="M32.3547 76.8045C32.3547 76.8045 32.2321 76.7849 32.0336 76.772C31.7742 76.7505 31.513 76.7697 31.2596 76.829C31.0071 76.8873 30.7649 76.9834 30.5411 77.114C30.3704 77.2151 30.2719 77.2891 30.2638 77.2835C30.3343 77.1993 30.4182 77.1272 30.5121 77.0702C30.7354 76.921 30.9841 76.814 31.246 76.7544C31.5058 76.6942 31.7746 76.6833 32.0385 76.7221C32.1484 76.7281 32.2559 76.7561 32.3547 76.8045V76.8045Z" fill="#F2F2F2"/>
<path d="M32.8179 75.3478C32.8179 75.3478 32.0199 75.5422 31.0327 75.736C30.0455 75.9299 29.2364 76.0633 29.2364 76.0633C29.2364 76.0633 30.0276 75.8702 31.0204 75.6683C32.0131 75.4664 32.8142 75.3274 32.8179 75.3478Z" fill="#F2F2F2"/>
<path d="M32.6428 75.9254C32.5047 75.9862 32.3603 76.0314 32.2121 76.0599C31.9409 76.1093 31.5416 76.2241 31.1645 76.3068C30.7874 76.3895 30.3714 76.4513 30.1003 76.5007C29.9565 76.5422 29.8088 76.5691 29.6597 76.581L30.1003 76.5007L31.1645 76.3068L32.222 76.1141C32.3583 76.0428 32.4989 75.9798 32.6428 75.9254V75.9254Z" fill="#F2F2F2"/>
<path d="M23.4477 61.9397C23.3775 62.0155 23.0072 61.789 22.6079 61.4417C22.2087 61.0945 21.9449 60.7226 22.0194 60.709C22.094 60.6954 22.4587 60.8529 22.8524 61.2082C23.2461 61.5634 23.5061 61.8381 23.4477 61.9397Z" fill="#F2F2F2"/>
<path d="M27.2987 59.5093C26.9762 59.0006 26.7543 58.4348 26.6448 57.8425C26.4245 57.279 26.315 56.6783 26.3225 56.0733C26.6519 56.5811 26.8747 57.1504 26.9776 57.7469C27.2054 58.3058 27.3148 58.9059 27.2987 59.5093V59.5093Z" fill="#F2F2F2"/>
<path d="M31.6625 58.21C31.7537 58.2494 31.6867 58.6116 31.5138 59.0071C31.3409 59.4026 31.1291 59.7001 31.0379 59.6607C30.9467 59.6214 31.015 59.2659 31.1867 58.8637C31.3584 58.4614 31.5714 58.1706 31.6625 58.21Z" fill="#F2F2F2"/>
</svg>
