<svg width="74" height="67" viewBox="0 0 74 67" fill="none" xmlns="http://www.w3.org/2000/svg">
<path d="M32.5164 17.0612C32.3266 16.8339 21.3282 11.7331 11.3671 19.3336C2.21072 26.3218 -0.96795 39.4562 0.248447 39.7717C1.73753 40.1567 5.81714 33.8902 13.6475 30.4442C16.4252 29.2225 20.8443 30.4442 20.8443 30.4442L32.5164 17.0612Z" fill="#0ACF83"/>
<path opacity="0.1" d="M20.8499 30.4415C19.5386 30.108 18.1928 29.9285 16.8398 29.9068C18.5669 26.2924 21.791 19.5501 23.8843 15.1818C28.8113 15.2272 32.4204 16.9355 32.53 17.0531L20.8499 30.4415Z" fill="black"/>
<path d="M50.6343 38.4296C50.8268 38.6541 54.0616 50.3396 44.9319 58.9212C36.5401 66.813 23.0635 67.7995 22.9512 66.5484C22.8149 65.0165 29.6668 62.017 34.3453 54.8549C36.0028 52.3152 35.5242 47.7544 35.5242 47.7544L50.6343 38.4296Z" fill="#0ACF83"/>
<path opacity="0.1" d="M51.0591 47.3266L35.377 51.8901C35.5866 50.5219 35.6324 49.1335 35.5133 47.7544L50.6234 38.4296C50.7437 38.5579 51.8611 42.4316 51.0591 47.3266Z" fill="black"/>
<path d="M25.0283 52.7137L14.2866 40.0445C14.2866 40.0445 19.9008 25.0227 33.2036 14.9332C39.8523 9.89923 47.64 6.13241 54.6362 3.6408C64.2738 0.186772 72.3368 -0.807732 73.5853 0.657291C74.8338 2.12231 72.5159 9.92329 67.5488 18.8712C63.9423 25.3435 58.9484 32.4226 52.8959 38.1597C40.764 49.6447 25.0283 52.7137 25.0283 52.7137Z" fill="#323232"/>
<path d="M51.1233 32.7354C49.6785 33.9616 47.9025 34.7317 46.0199 34.9483C44.1373 35.1649 42.2328 34.8183 40.5473 33.9522C38.8618 33.0862 37.471 31.7396 36.551 30.083C35.6309 28.4263 35.2229 26.534 35.3786 24.6454C35.5342 22.7569 36.2466 20.9569 37.4255 19.4732C38.6044 17.9896 40.1968 16.889 42.0014 16.3106C43.806 15.7322 45.7416 15.7021 47.5633 16.224C49.3849 16.7459 51.0109 17.7965 52.2354 19.2427C53.875 21.1803 54.6788 23.6894 54.4703 26.2191C54.2618 28.7488 53.058 31.0923 51.1233 32.7354Z" fill="#A6A6A6"/>
<path d="M51.6474 31.845C50.2023 33.0702 48.4264 33.8393 46.5442 34.0551C44.662 34.2709 42.7581 33.9237 41.0733 33.0575C39.3884 32.1912 37.9982 30.8448 37.0786 29.1885C36.1589 27.5322 35.7511 25.6403 35.9066 23.7522C36.0621 21.8641 36.7741 20.0645 37.9524 18.581C39.1307 17.0975 40.7224 15.9968 42.5263 15.4179C44.3303 14.8391 46.2653 14.8081 48.0868 15.329C49.9083 15.8499 51.5344 16.8993 52.7595 18.3444C54.4016 20.2824 55.207 22.7933 54.9984 25.3249C54.7899 27.8566 53.5845 30.2018 51.6474 31.845Z" fill="#0ACF83"/>
<path d="M49.752 29.6022C48.7507 30.4536 47.5193 30.9888 46.2137 31.1401C44.908 31.2914 43.5869 31.052 42.4173 30.4523C41.2478 29.8525 40.2824 28.9193 39.6434 27.7707C39.0044 26.6221 38.7204 25.3098 38.8275 23.9998C38.9345 22.6898 39.4278 21.441 40.2448 20.4114C41.0618 19.3818 42.1658 18.6177 43.4172 18.2157C44.6686 17.8138 46.0111 17.7921 47.2749 18.1533C48.5386 18.5146 49.6668 19.2426 50.5166 20.2453C51.6548 21.588 52.2135 23.3276 52.0702 25.0819C51.9268 26.8363 51.0931 28.462 49.752 29.6022Z" fill="white"/>
<path d="M49.7548 29.6021C49.1279 30.1359 48.4072 30.5483 47.6294 30.8185L42.2827 30.3827C41.5591 29.9905 40.9153 29.4664 40.3845 28.8375C39.9948 28.3809 39.67 27.8726 39.4194 27.327L50.9418 28.2654C50.6091 28.7631 50.2097 29.2129 49.7548 29.6021Z" fill="#EBEBEB"/>
<path d="M51.0913 21.0286L40.4565 20.1624C40.6706 19.9163 40.903 19.6866 41.1516 19.4754C42.4941 18.3366 44.2338 17.7774 45.9884 17.9208C47.7429 18.0641 49.3688 18.8983 50.5085 20.24C50.7225 20.4877 50.9174 20.7513 51.0913 21.0286Z" fill="#EBEBEB"/>
<path d="M51.6688 26.8886L38.9434 25.8486C38.9012 25.6536 38.87 25.4563 38.8499 25.2578L51.8533 26.3272C51.8025 26.509 51.7383 26.6988 51.6688 26.8886Z" fill="#EBEBEB"/>
<path d="M67.5487 18.8711L54.6362 3.63275C64.2738 0.18674 72.3368 -0.807764 73.5853 0.657259C74.8338 2.12228 72.5266 9.92326 67.5487 18.8711Z" fill="#0ACF83"/>
<path d="M58.4325 4.92657C58.3483 4.99832 58.2447 5.04348 58.1349 5.05633C58.025 5.06917 57.9138 5.04912 57.8154 4.99872C57.7169 4.94832 57.6356 4.86983 57.5818 4.7732C57.528 4.67657 57.5041 4.56614 57.5131 4.45591C57.5221 4.34567 57.5636 4.24058 57.6324 4.15396C57.7011 4.06733 57.7941 4.00307 57.8994 3.9693C58.0047 3.93554 58.1177 3.93379 58.224 3.96428C58.3303 3.99477 58.4252 4.05613 58.4966 4.14059C58.5921 4.25345 58.6389 4.39952 58.6269 4.54683C58.6148 4.69414 58.5449 4.83068 58.4325 4.92657Z" fill="white"/>
<path d="M60.7288 7.63747C60.673 7.68652 60.608 7.72396 60.5376 7.7476C60.4672 7.77124 60.3928 7.78061 60.3187 7.77515C60.2447 7.7697 60.1724 7.74953 60.1062 7.71584C60.0401 7.68214 59.9813 7.63558 59.9333 7.57889C59.8853 7.52221 59.8491 7.45652 59.8268 7.38568C59.8045 7.31484 59.7966 7.24026 59.8034 7.16631C59.8103 7.09236 59.8318 7.02052 59.8668 6.95499C59.9017 6.88946 59.9494 6.83156 60.007 6.78466C60.1204 6.69225 60.2656 6.64805 60.4114 6.66157C60.5571 6.67509 60.6917 6.74524 60.7863 6.85695C60.8808 6.96865 60.9277 7.113 60.917 7.25895C60.9062 7.40491 60.8387 7.54082 60.7288 7.63747Z" fill="white"/>
<path d="M63.0254 10.3456C62.9404 10.4148 62.8369 10.4575 62.7278 10.4684C62.6188 10.4792 62.5089 10.4578 62.4119 10.4066C62.315 10.3555 62.2352 10.277 62.1825 10.1809C62.1298 10.0847 62.1066 9.97522 62.1157 9.86598C62.1248 9.75674 62.1658 9.65259 62.2337 9.5665C62.3016 9.48041 62.3932 9.41618 62.4973 9.38181C62.6014 9.34744 62.7133 9.34445 62.8191 9.37321C62.9249 9.40197 63.0199 9.46122 63.0922 9.54356C63.1422 9.59983 63.1802 9.66565 63.204 9.73704C63.2277 9.80843 63.2368 9.8839 63.2305 9.95888C63.2243 10.0339 63.2029 10.1068 63.1676 10.1733C63.1323 10.2397 63.084 10.2984 63.0254 10.3456Z" fill="white"/>
<path d="M65.3246 13.0565C65.2398 13.126 65.1365 13.1691 65.0274 13.1803C64.9184 13.1916 64.8084 13.1705 64.7112 13.1197C64.6141 13.0689 64.534 12.9906 64.481 12.8947C64.428 12.7987 64.4044 12.6893 64.4132 12.58C64.4219 12.4707 64.4626 12.3664 64.5302 12.2801C64.5978 12.1938 64.6893 12.1292 64.7933 12.0945C64.8973 12.0598 65.0092 12.0565 65.115 12.0849C65.2209 12.1134 65.3161 12.1723 65.3887 12.2544C65.4385 12.3107 65.4764 12.3764 65.5001 12.4477C65.5239 12.5189 65.5331 12.5942 65.5271 12.6691C65.5211 12.744 65.5001 12.8168 65.4653 12.8834C65.4305 12.95 65.3826 13.0088 65.3246 13.0565Z" fill="white"/>
<path d="M67.6343 15.7673C67.55 15.8387 67.4465 15.8835 67.3367 15.8961C67.227 15.9087 67.116 15.8884 67.0178 15.838C66.9195 15.7875 66.8385 15.709 66.7848 15.6125C66.7311 15.516 66.7072 15.4057 66.7162 15.2957C66.7252 15.1856 66.7665 15.0806 66.8351 14.994C66.9037 14.9075 66.9964 14.8432 67.1015 14.8092C67.2066 14.7753 67.3194 14.7733 67.4256 14.8034C67.5319 14.8336 67.6268 14.8946 67.6984 14.9786C67.7461 15.0346 67.7822 15.0994 67.8048 15.1693C67.8274 15.2393 67.836 15.313 67.83 15.3863C67.824 15.4595 67.8037 15.5309 67.7701 15.5963C67.7365 15.6617 67.6903 15.7198 67.6343 15.7673Z" fill="white"/>
<path d="M17.3744 39.7476C17.261 39.84 17.1158 39.8842 16.97 39.8707C16.8243 39.8572 16.6897 39.787 16.5951 39.6753C16.5006 39.5636 16.4537 39.4193 16.4644 39.2733C16.4751 39.1274 16.5427 38.9915 16.6526 38.8948C16.7084 38.8458 16.7734 38.8083 16.8438 38.7847C16.9142 38.761 16.9886 38.7517 17.0627 38.7571C17.1367 38.7626 17.209 38.7827 17.2752 38.8164C17.3413 38.8501 17.4001 38.8967 17.4481 38.9534C17.4961 39.0101 17.5323 39.0758 17.5546 39.1466C17.5769 39.2174 17.5848 39.292 17.578 39.366C17.5711 39.4399 17.5496 39.5118 17.5146 39.5773C17.4797 39.6428 17.432 39.7007 17.3744 39.7476Z" fill="#A6A6A6"/>
<path d="M19.6842 42.4584C19.5994 42.528 19.4961 42.5711 19.387 42.5823C19.278 42.5935 19.168 42.5725 19.0709 42.5217C18.9737 42.4709 18.8936 42.3926 18.8406 42.2967C18.7876 42.2007 18.764 42.0912 18.7728 41.982C18.7815 41.8727 18.8222 41.7684 18.8898 41.6821C18.9574 41.5957 19.0489 41.5312 19.1529 41.4965C19.2569 41.4618 19.3688 41.4585 19.4747 41.4869C19.5805 41.5153 19.6757 41.5743 19.7483 41.6564C19.7981 41.7127 19.836 41.7784 19.8597 41.8497C19.8835 41.9209 19.8927 41.9962 19.8867 42.0711C19.8807 42.1459 19.8597 42.2188 19.8249 42.2854C19.7901 42.3519 19.7422 42.4108 19.6842 42.4584Z" fill="#A6A6A6"/>
<path d="M21.9807 45.1746C21.8964 45.246 21.7929 45.2908 21.6832 45.3034C21.5734 45.316 21.4625 45.2958 21.3642 45.2453C21.266 45.1948 21.1849 45.1164 21.1312 45.0199C21.0775 44.9234 21.0537 44.8131 21.0626 44.703C21.0716 44.5929 21.113 44.488 21.1815 44.4014C21.2501 44.3148 21.3428 44.2505 21.4479 44.2166C21.553 44.1827 21.6658 44.1806 21.7721 44.2108C21.8783 44.2409 21.9732 44.3019 22.0449 44.386C22.0925 44.4419 22.1287 44.5067 22.1513 44.5767C22.1738 44.6466 22.1824 44.7204 22.1764 44.7936C22.1705 44.8669 22.1501 44.9383 22.1165 45.0036C22.0829 45.069 22.0368 45.1271 21.9807 45.1746Z" fill="#A6A6A6"/>
<path d="M24.2772 47.8774C24.1924 47.9469 24.0891 47.99 23.98 48.0013C23.871 48.0125 23.761 47.9914 23.6639 47.9406C23.5667 47.8898 23.4867 47.8116 23.4337 47.7156C23.3807 47.6196 23.3571 47.5102 23.3658 47.4009C23.3745 47.2916 23.4152 47.1873 23.4828 47.101C23.5504 47.0147 23.6419 46.9502 23.7459 46.9154C23.8499 46.8807 23.9618 46.8774 24.0677 46.9058C24.1736 46.9343 24.2687 46.9932 24.3414 47.0754C24.3911 47.1316 24.429 47.1974 24.4528 47.2686C24.4765 47.3398 24.4857 47.4152 24.4797 47.49C24.4737 47.5649 24.4527 47.6378 24.4179 47.7043C24.3831 47.7709 24.3353 47.8297 24.2772 47.8774Z" fill="#A6A6A6"/>
<path d="M26.5735 50.5856C26.4885 50.6548 26.385 50.6975 26.2759 50.7084C26.1669 50.7192 26.057 50.6977 25.96 50.6466C25.8631 50.5955 25.7833 50.517 25.7306 50.4209C25.6779 50.3247 25.6547 50.2152 25.6638 50.106C25.6729 49.9967 25.7139 49.8926 25.7818 49.8065C25.8497 49.7204 25.9413 49.6562 26.0454 49.6218C26.1495 49.5874 26.2614 49.5844 26.3672 49.6132C26.473 49.642 26.568 49.7012 26.6403 49.7836C26.6903 49.8398 26.7283 49.9056 26.7521 49.977C26.7758 50.0484 26.7849 50.1239 26.7786 50.1989C26.7724 50.2738 26.751 50.3468 26.7157 50.4133C26.6804 50.4797 26.6321 50.5383 26.5735 50.5856Z" fill="#A6A6A6"/>
<path opacity="0.2" d="M72.9811 0.280259C65.5437 0.814939 52.6633 5.31694 39.1118 15.9464C29.0973 23.7982 21.7909 37.5394 18.3849 44.8779L14.2866 40.0444C14.2866 40.0444 19.9008 25.0226 33.2036 14.9332C39.8523 9.89915 47.64 6.13233 54.6362 3.64072C63.274 0.542252 70.6446 -0.580575 72.9811 0.280259Z" fill="white"/>
<path d="M20.2294 54.7775L11.4954 44.4742L14.8933 40.7609L24.448 52.0319L20.2294 54.7775Z" fill="#0ACF83"/>
<path opacity="0.1" d="M24.4482 52.0319L22.3924 53.3686L13.5942 42.1805L14.8935 40.7635L24.4482 52.0319Z" fill="black"/>
<path d="M67.4125 20.2479L63.4211 19.9806L61.5443 23.7821L61.7154 19.5475L58.085 17.8686L62.1164 17.9087L63.9504 14.3344L63.8542 18.3498L67.4125 20.2479Z" fill="#FCFCFC"/>
<path d="M66.4314 5.50403L64.1991 5.35699L63.1511 7.48235L63.2474 5.11371L61.2183 4.17535L63.4719 4.19674L64.4959 2.19971L64.4424 4.44536L66.4314 5.50403Z" fill="#FCFCFC"/>
<path d="M48.3806 50.8235L46.151 50.6738L45.103 52.7991L45.1966 50.4332L43.1675 49.4948L45.4212 49.5162L46.4477 47.5192L46.3916 49.7648L48.3806 50.8235Z" fill="#FCFCFC"/>
<path d="M8.67529 31.1072L6.443 30.9575L5.39503 33.0828L5.49127 30.7169L3.46216 29.7785L5.71583 29.7999L6.73975 27.8029L6.68628 30.0458L8.67529 31.1072Z" fill="#FCFCFC"/>
</svg>
