<svg width="25" height="24" viewBox="0 0 25 24" fill="none" xmlns="http://www.w3.org/2000/svg">
<mask id="path-1-inside-1" fill="white">
<path fill-rule="evenodd" clip-rule="evenodd" d="M4.23387 8.12903C6.57217 8.12903 8.46774 6.30929 8.46774 4.06452C8.46774 1.81975 6.57217 0 4.23387 0C1.89557 0 0 1.81975 0 4.06452C0 6.30929 1.89557 8.12903 4.23387 8.12903ZM20.7661 8.12903C23.1044 8.12903 25 6.30929 25 4.06452C25 1.81975 23.1044 0 20.7661 0C18.4278 0 16.5322 1.81975 16.5322 4.06452C16.5322 6.30929 18.4278 8.12903 20.7661 8.12903ZM25 19.9356C25 22.1803 23.1044 24.0001 20.7661 24.0001C18.4278 24.0001 16.5322 22.1803 16.5322 19.9356C16.5322 17.6908 18.4278 15.8711 20.7661 15.8711C23.1044 15.8711 25 17.6908 25 19.9356ZM4.23387 24.0001C6.57217 24.0001 8.46774 22.1803 8.46774 19.9356C8.46774 17.6908 6.57217 15.8711 4.23387 15.8711C1.89557 15.8711 0 17.6908 0 19.9356C0 22.1803 1.89557 24.0001 4.23387 24.0001Z"/>
</mask>
<path d="M7.66774 4.06452C7.66774 5.83699 6.16144 7.32903 4.23387 7.32903V8.92903C6.98291 8.92903 9.26774 6.78158 9.26774 4.06452H7.66774ZM4.23387 0.8C6.16144 0.8 7.66774 2.29204 7.66774 4.06452H9.26774C9.26774 1.34745 6.98291 -0.8 4.23387 -0.8V0.8ZM0.8 4.06452C0.8 2.29204 2.3063 0.8 4.23387 0.8V-0.8C1.48483 -0.8 -0.8 1.34745 -0.8 4.06452H0.8ZM4.23387 7.32903C2.3063 7.32903 0.8 5.83699 0.8 4.06452H-0.8C-0.8 6.78158 1.48483 8.92903 4.23387 8.92903V7.32903ZM24.2 4.06452C24.2 5.83699 22.6937 7.32903 20.7661 7.32903V8.92903C23.5152 8.92903 25.8 6.78158 25.8 4.06452H24.2ZM20.7661 0.8C22.6937 0.8 24.2 2.29204 24.2 4.06452H25.8C25.8 1.34745 23.5152 -0.8 20.7661 -0.8V0.8ZM17.3322 4.06452C17.3322 2.29204 18.8385 0.8 20.7661 0.8V-0.8C18.0171 -0.8 15.7322 1.34745 15.7322 4.06452H17.3322ZM20.7661 7.32903C18.8385 7.32903 17.3322 5.83699 17.3322 4.06452H15.7322C15.7322 6.78158 18.0171 8.92903 20.7661 8.92903V7.32903ZM20.7661 24.8001C23.5152 24.8001 25.8 22.6526 25.8 19.9356H24.2C24.2 21.7081 22.6937 23.2001 20.7661 23.2001V24.8001ZM15.7322 19.9356C15.7322 22.6526 18.0171 24.8001 20.7661 24.8001V23.2001C18.8385 23.2001 17.3322 21.7081 17.3322 19.9356H15.7322ZM20.7661 15.0711C18.0171 15.0711 15.7322 17.2185 15.7322 19.9356H17.3322C17.3322 18.1631 18.8385 16.6711 20.7661 16.6711V15.0711ZM25.8 19.9356C25.8 17.2185 23.5152 15.0711 20.7661 15.0711V16.6711C22.6937 16.6711 24.2 18.1631 24.2 19.9356H25.8ZM7.66774 19.9356C7.66774 21.7081 6.16144 23.2001 4.23387 23.2001V24.8001C6.98291 24.8001 9.26774 22.6526 9.26774 19.9356H7.66774ZM4.23387 16.6711C6.16144 16.6711 7.66774 18.1631 7.66774 19.9356H9.26774C9.26774 17.2185 6.98291 15.0711 4.23387 15.0711V16.6711ZM0.8 19.9356C0.8 18.1631 2.3063 16.6711 4.23387 16.6711V15.0711C1.48483 15.0711 -0.8 17.2185 -0.8 19.9356H0.8ZM4.23387 23.2001C2.3063 23.2001 0.8 21.7081 0.8 19.9356H-0.8C-0.8 22.6526 1.48483 24.8001 4.23387 24.8001V23.2001Z" fill="#0ACF83" mask="url(#path-1-inside-1)"/>
<path d="M8.46772 4.06452H16.7338M20.9677 7.93549V15.871M8.46772 20.129H16.7338M4.23385 7.93549V15.871M20.9677 1.74194V4.06452H23.1855M5.44352 18.7742V21.4839M4.23385 21.4839V19.9355M3.02417 20.7097V21.4839M9.6774 12C9.83869 12.1548 11.0887 13.3548 11.6935 13.9355L15.3226 10.0645" stroke="#0ACF83" stroke-width="0.8"/>
<path d="M22 21.3334V21C22 20.8232 21.9298 20.6537 21.8047 20.5286C21.6797 20.4036 21.5101 20.3334 21.3333 20.3334H20.1667C19.9899 20.3334 19.8203 20.4036 19.6953 20.5286C19.5702 20.6537 19.5 20.8232 19.5 21V21.3334" stroke="#0ACF83" stroke-width="0.8" stroke-linecap="round" stroke-linejoin="round"/>
<path d="M20.75 19.3333C21.1182 19.3333 21.4167 19.0349 21.4167 18.6667C21.4167 18.2985 21.1182 18 20.75 18C20.3819 18 20.0834 18.2985 20.0834 18.6667C20.0834 19.0349 20.3819 19.3333 20.75 19.3333Z" stroke="#0ACF83" stroke-width="0.8" stroke-linecap="round" stroke-linejoin="round"/>
<path d="M5.5 5.83337V5.50004C5.5 5.32323 5.42976 5.15366 5.30474 5.02864C5.17971 4.90361 5.01014 4.83337 4.83333 4.83337H3.66667C3.48986 4.83337 3.32029 4.90361 3.19526 5.02864C3.07024 5.15366 3 5.32323 3 5.50004V5.83337" stroke="#0ACF83" stroke-width="0.8" stroke-linecap="round" stroke-linejoin="round"/>
<path d="M4.25004 3.83333C4.61823 3.83333 4.91671 3.53486 4.91671 3.16667C4.91671 2.79848 4.61823 2.5 4.25004 2.5C3.88185 2.5 3.58337 2.79848 3.58337 3.16667C3.58337 3.53486 3.88185 3.83333 4.25004 3.83333Z" stroke="#0ACF83" stroke-width="0.8" stroke-linecap="round" stroke-linejoin="round"/>
</svg>
